<svg xmlns="http://www.w3.org/2000/svg" viewBox="0 0 576.99 577"><g><path d="m24.02,0c17.17,4.72,31.19,14.38,42.97,28.49,2.09-10.07,7.47-16.8,16.41-18.23,9.69-1.55,17.56,4.17,23.34,11.36,12.96,16.1,19.34,35.27,24.8,54.97,5.88,21.23,12.86,42.39,29.47,58.03,11.88,11.17,26.44,17.44,43.14,18,18.66.62,36.58-1.21,52.41-12.58,18.49-13.28,26.82-34.97,21.1-58.7-6.36-26.35-31.56-32.8-51.33-27.58-11.27,2.98-17.45,15.55-13.83,28.05,3.31,11.4,9.72,16.41,22.1,17.07,4.03.21,8.1.32,12.11-.03,4.07-.36,8.08-1.36,12.63-2.17-3.41,8.92-11.05,14.32-17.97,19.74-13.46,10.53-30.05,10.69-43.77.64-8.51-6.23-14.22-15.19-13.7-26.01.5-10.36-1.9-16-12.49-20.87-20.83-9.57-31.79-28.33-37.01-50.21-1.34-5.61-.78-11.67-1.09-17.53l1.74-.55c1.59,2.1,3.42,4.05,4.72,6.31,10.25,17.78,34.57,22.74,49.87,19.2,18.81-4.36,37.4-10.5,56.45-12.85,28.08-3.46,50.73,7.82,67.18,31.78,2.91-4.89,5.73-9.79,8.71-14.6,6.67-10.77,14.96-19.67,26.72-25.28,15.75-7.52,26.66,5.75,28.5,17.4.21,1.34.25,2.7.27,2.99,9.16-2.36,18.26-6.83,27.13-6.43,10.46.47,21.35,3.89,30.87,8.48,6.1,2.95,10.65,2.5,15.88.44,18.88-7.41,38.4-11.15,58.66-12.62,14.02-1.02,27.8-2.28,41.49,1.69,9.95,2.89,18.85,7.5,25.51,15.72-7.97,1.34-15.81,2.62-23.63,4-6.53,1.15-11.5,4.05-15.94,9.62-9.62,12.06-21.65,22.24-36.98,25.31-10.1,2.02-21.03-.07-31.58-.37-1.08-.03-2.15-.36-3.13-.54.63,10.18,1.83,20.02,1.76,29.85-.24,34.72-16.29,59.8-46.81,76.2-14.2,7.63-29.53,11.45-44.69,16.27-17.5,5.57-34.2,13.65-51.36,20.35-17.66,6.9-35.33,6.13-54.07-1.15,3.79-1.26,6.47-2.62,9.28-3,17.62-2.4,31.2-12.3,43.78-23.74,8.23-7.49,15.14-16.7,26.03-17.45-3.03-9.98-6.98-19.84-8.95-30.07-4.41-22.93,14.45-44.7,37.92-44.75,3.06,0,6.12-.03,9.18.01,7.15.11,12.45,2.88,14.71,10.5-3.93.74-7.71,1.3-11.42,2.17-9.31,2.17-11.67,5.36-11.08,14.57.33,5.1,6.18,10.12,12.69,10.88,10.06,1.18,23.81-6.08,28.69-15.14,13.52-25.12-2.78-51.81-31.59-52.8-18.75-.64-34.64,6.59-46.83,18.99-11.51,11.71-19.9,26.56-29.23,40.32-7.24,10.68-13.49,22.03-20.72,32.71-13.16,19.46-31.06,32.79-53.56,39.83-1.08.34-2.02,1.1-1.48.8,7.49,8.02,15.95,15.81,22.82,24.81,5.78,7.58,8.89,17.58,7,26.74-3.17,15.31-17.59,22.44-33.89,16.84-15.59-5.36-26.92-15.54-35.69-30.78-1.34,3.78-2.26,6.43-3.21,9.07-9.75,27.23-29.74,44.75-53.86,59.28-19.92,12.01-39.09,25.43-57.71,39.39-20.17,15.12-24.27,51.8-9.03,71.25,7.85,10.02,18.3,14.87,30.8,12.32,12.46-2.54,21.92-9.73,26.07-22.42.85-2.59,1.4-5.39,1.47-8.11.25-9.36-4.56-15.46-11.74-15.92-8.96-.58-13.38,3.67-14.99,15.22-.32,2.27-.05,4.62-.05,7.15-7.12-.58-10.09-5.78-10.85-10.68-2.17-14.12.39-34.82,16.65-45.08,9.32-5.89,19.69-7.58,30.04-5.55,9.68,1.9,18.94,5.92,28.07,8.91.04-6.68,3.76-13.26,9.63-18.72,11.53-10.73,21.01-23.03,27.32-37.45,2.54-5.81,3.41-12.36,5.11-18.55.41-1.51,1.1-2.93,1.87-4.92,8.5,22.25,6.79,43.09-2.92,63.98-6.58,14.17-11.75,29.01-17.27,43.65-5.26,13.96-9.04,28.59-15.46,41.97-12.62,26.31-33.36,43.18-63.1,46.09-13.9,1.36-28.04.23-42.09.23.57,5.67,1.26,12.41,1.9,19.15,1.63,17.16-7.21,30.2-17.35,42.45-3.98,4.8-9.7,8.15-13.74,12.91-2.69,3.17-4.54,7.5-5.48,11.61-1.83,8-2.77,16.22-4.13,24.66-10.15-8.2-14.94-19.44-17.17-31.92-3.79-21.23-.27-42.18,3.46-62.99,1.74-9.68,4.55-19.29,8.06-28.49,2.88-7.54,2.88-13.43-1.23-20.91-9.84-17.9-9.25-36.45.42-54.03-4.94-2.09-10.67-3.21-14.69-6.45-11.58-9.32-11.45-21.02-1.07-33.21,9.77-11.47,22.01-19.42,35.6-25.96-27.74-14.59-39.82-51.05-30.48-80.23,6-18.75,12.07-37.6,11.04-57.57-.8-15.48-6.87-28.61-21.01-36.81-.79-.46-1.56-.99-2.28-1.56-.85-.69-1.63-1.47-2.43-2.2,9.48-4.39,18.68-1.62,27.14,1.78,20.34,8.17,37.06,20.69,44.38,42.61,1.71,5.13,5.52,4.79,9.62,4.48,14.33-1.08,26.41,3.11,34.46,15.66,9.97,15.54,7.13,30.5-2.94,43.59-4.98,6.48-11.55,11.73-16.88,17.02.25-9.6.83-18.78.63-27.95-.23-10.95-9.81-19.38-20.8-20.06-20.62-1.27-23.96,9.74-25.69,25.15-2.49,22.12,14.15,38.28,35.52,41.77,31.63,5.16,58.38-19,63.33-48.51,2.94-17.54,3.1-34.82-4.47-51.41-9.61-21.07-27.23-32.82-48.16-40.27-16.9-6.02-34.12-11.11-51.01-17.14-12.07-4.31-22.85-10.98-31.15-21.02-11.59-14.01-6.61-28.95,10.01-33.08-6.55-9.04-13.66-18.15-19.93-27.82-2.99-4.62-4.36-10.28-6.46-15.47C0,16.13,0,8.24,0,0h24.02Z"/></g></svg>