<?xml version="1.0" encoding="utf-8"?>
<!-- Generator: Adobe Illustrator 28.0.0, SVG Export Plug-In . SVG Version: 6.00 Build 0)  -->
<svg version="1.1" id="Layer_1" xmlns="http://www.w3.org/2000/svg" xmlns:xlink="http://www.w3.org/1999/xlink" x="0px" y="0px"
	 viewBox="0 0 562.1 561.4" style="enable-background:new 0 0 562.1 561.4;" xml:space="preserve">
<path d="M540.6-2.5c-1.2,1.2-2.4,2.4-3.5,3.7c0,0,0,0,0,0c-0.4-1.9-1.3-3.1-2.5-3.9c-0.5,0-1-0.1-1.5-0.2c-1.2-0.2-2.2-0.6-3-1.3
	c-3.4-0.4-7.4,0.2-10,0.3c-15.9,0.4-31.8,0.9-47.6,1.3c-0.9-0.6-1.8-1.2-2.6-2c-3.2,0.3-6.3,0.7-9.4,1.4c-0.4,0.1-0.7,0.1-1.1,0.1
	c0,0.6,0.1,1.2,0.3,1.8c-7.9-2.2-15.9-3.9-24.1-4.8C422-7.4,408.3-7.5,395-5.9c-0.5,0.1-1,0.1-1.5,0.2c-0.9-2.7-4-5-7.4-3.5
	c-5.2,2.4-10.6,3.7-16.1,3.9c-0.6-0.9-1.5-1.6-2.7-1.9c-4.4-1.3-8.7-2.6-13.1-3.9c-0.7-0.2-1.4-0.2-2.1-0.1c-0.3-0.6-0.6-1.2-1-1.8
	h-2.1c-1.1,0.9-2.2,1.7-3.3,2.6c-4-1.3-8-2.3-12-2.6c-0.6-0.5-1.1-1-1.6-1.5c-3.7,0.9-7.3,2-11,3.3c-0.5,0.2-1,0.2-1.4,0.3
	c-0.3,0.1-0.6,0.2-0.9,0.3c-1,0.4-1.8,1-2.5,1.7c-1.5-0.8-3-1.5-4.5-2.3c-2-1-4.4-1.3-6.6-1.9h-7.3c-4.3,0.7-8.6,1.4-12.8,2.1
	c-10.6,1.7-21.1,3.8-31.7,5c-13.2,1.6-26.5,2.5-39.8,0.2c-3.3-0.6-6.7-1.2-10-1.9c-2.6,0.5-5.1,1.1-7.7,1.6
	c5.7,9,14.2,16.3,26.4,21.2c12.8,5.2,25.6,4.4,39.2,1.8c-4,12.5,2,20.8,10.6,27.8c9.8,7.9,29.9,4,36.2-6.9
	c3.9-6.6,2.2-15.2-4.3-22.3c-1.7,1.9-3.2,4.2-5.2,5.6c-3.4,2.4-8.2,1.4-9.5-1.5c-1.2-2.7,0.3-7.2,1.7-10.4c0.7-1.6,4.1-2.4,6.4-2.6
	c12.5-0.9,24.2,7.4,25.4,18.3c1.4,12.5-5.1,25-18.9,28.4c-10.5,2.6-20.7,0.5-31-1.5c-23-4.4-42.8-15.9-62.7-27.3
	c-20-11.5-40.9-20.4-64.2-23.4c-5.7-0.7-11.3-0.9-16.8-0.5c0.4-0.9,0.6-2,0.4-3.2c-0.2-1-0.4-2-0.7-2.9c-9.3,0.3-18.6-0.1-27.9-0.7
	c-0.5,0.3-1,0.6-1.4,0.9c0-0.3,0-0.7,0-1c-4.3-0.3-8.7-0.6-13-0.9c-0.8,0.6-1.6,1.1-2.4,1.8C76-6.8,67.9-6.6,59.9-3.9
	c-1.1-0.8-2.5-1.3-4.2-1c-0.8,0.1-1.6,0.3-2.3,0.4c0.3-0.8,0.3-1.5,0.3-2.3C43.4-5.6,33.3-4.1,23-4.6C22.3-3.3,21-2.2,19.1-2
	c-0.8,0.4-1.5,1-1.9,1.7c-0.6-0.5-1.3-1-2-1.4C9.4-1.3,3.5-1.1-2.4-1c3.5,19.2,3.1,39.1,1.8,58.9c-1,15.9-1.1,31.4-0.7,47.3
	c0.2,10.5,0.1,21-1.3,31.4c1.2,0.1,2.3,0,3.3-0.6c-0.4,16.3,3.8,31.9,10.5,46.6C20.5,203.1,32,222.7,42,243
	c6.2,12.5,10.4,25.9,11.5,39.9c0.6,7.3,1.1,14.8-0.2,21.9c-1.9,10.2-9.6,16-19.3,18.1c-8,1.8-15.9,0-21.4-6.9
	c-4.7-5.8-6.3-12.8-5.1-20c0.9-5.2,4.7-7.4,9.5-7.2c3.8,0.2,4.8,2.9,5.3,5.7c0.8,4.9-2,7.6-6.4,9c-0.2,0.1-0.4,0.5-1.3,1.5
	c4.7,2,9,4.7,13.5,5.4c8.9,1.4,18.6-6.9,20.3-16.2c2.9-16.1-3.5-25.9-16.1-32c-4.1-2-9.5-1.2-14.8-1.7c5.8-26.2-1.2-48.1-22.5-63.5
	c2.6,8.4,1.4,17.9,0.2,27.4c0.3,3.8,0.6,7.6,0.7,11.3c0.2,9.7-2.5,19.5-3.8,29.3c-1.4,10.1-2.7,20.3-4.1,30.4
	c-0.2,1.3-0.7,2.5-1,3.7v6.2c2.3,5.8,4.3,11.8,6.9,17.4c-0.5,0-1,0-1.5,0.1c-2.7,0.4-4.1,3.8-3.5,6.2c1,4,2.8,8.1,4.4,12.2
	c-2.1,2.6-4.3,5.2-6.4,7.8v3.1c3,1.3,6.1,2.7,9.1,4c-0.1,0.5-0.2,1-0.3,1.6c-2.2,9-7.1,17-1.8,26c0.5,0.8,1.1,1.4,1.8,1.8
	c-3.4,14.5-4.7,29.4-2.6,45c1.4,10.3,3.6,20.3,6.4,30.2c-3.4-2.8-9.7,1.7-7.4,6.8c2,4.3,3.7,8.7,5.2,13.1c-1,0.3-2,1-2.5,2.3
	c-1.1,2.5-1.1,4.5-0.5,6.3c0.8,19.6,0.6,39.2-0.7,58.8c0.8,4.4,0.5,9,0.5,13.5c0.9,0.7,1.8,1.5,2.6,2.2c6.1-5,12-10.3,17.3-16.2
	c0,0.2-0.1,0.4-0.1,0.6c9.5-6.9,15.8-16.7,19.9-28c5.5-15.2,2.8-30.4-0.8-45.3c-1.7-7.3-4.7-14.3-7.3-21.7c2.5,0,4.8,0,7,0
	c9,0.1,16.5-4.2,22-10.4c9.1-10.4,12.1-22.3,6.4-36c-4.7-11.3-16.8-19.5-29.9-14c-7.4,3.1-10.6,7.3-9.2,13.4c4.6-1.5,9.3-1.6,12.9,2
	c3.5,3.5,4.5,8.5,2.2,12.7c-1.5,2.7-5,5.3-8,6c-5.1,1.2-10.3,0.5-13.2-5.3c-3.7-7.3-3.1-15.3-1.6-22.5c3.6-17.2,14.5-30,28.3-40.6
	c10.3,23,28.7,27.5,39.7,21.5c-4.2-8.9-8.8-17.6-12.4-26.7c-1.6-4-2.8-9.2-1.7-13.1c3.7-12,8.2-23.8,8.2-36.6
	c0-9.9,0.3-19.9-0.8-29.6c-1.4-12.2-6.8-23.3-12.6-34.2c-9.6-18.1-18.1-36.8-27.6-54.9c-8.3-15.8-13.3-32.1-12-50
	c0.8-11.2,4-21.1,13.7-28.3c7.1-5.2,14.6-8.5,23.1-10.1c12-2.2,29,3.1,36.7,14.3c5.6,8.1,7.8,17.1,5.4,26.6
	c-2.1,8.3-5.8,16.2-15.4,18.5c-6.5,1.6-12.6,0.3-17.6-4.1c-4.6-4-3.8-9.1-2.2-14.2c2-6.2,7.9-8.2,14-4.9c1.3,0.7,2.7,1.4,4.5,2.3
	c0.6-7.3,0.6-13.5-4-18.8c-5.3-6.2-11.7-7.6-19.4-5.6c-8.4,2.2-15.3,6-19.1,14.4c-4,8.7-4,17.6-1.7,26.6c2.4,9.1,8.3,15.8,17,19.9
	c-8.6,5.3-11.8,13.2-12,22.5c0,1.1,0.9,3.1,1.5,3.2c4.1,0.5,8.2,1.1,12.2,0.7c2.6-0.3,5-2.4,8-3.9c0,6.7-0.4,12.9,0.1,19.1
	c0.4,5.6,0.9,11.3,2.8,16.5c3.7,10.2,8.5,20,12.7,30c5.7,13.6,7.8,27.6,3.4,42.1c10.6,2.8,17.5,0.4,23-7.4
	c5.5-7.7,7.8-15.9,4.2-25.2c10.9,2.4,20-0.8,28.4-6.5c12.4-8.5,19.6-20.8,24.2-34.7c4.5-13.6,12.3-23.2,27-26
	c0.3-0.1,0.6-0.7,0.8-1.1c-3.7-6-10-6-15.6-6.2c-12.5-0.6-21.8,5-27.7,16.6c-8.3-15.4-23.1-17.5-34.5-13.8
	c-19.3,6.2-17.4,28.5-7.3,36.8c5,4.1,9.4,3,11.5-3c0.3-1,0.4-2.2,1.1-2.8c1.8-1.4,4-3.8,5.6-3.5c2.4,0.4,5.4,2.3,6.4,4.4
	c2.2,4.5,1.5,9.2-1.8,13.3c-3.8,4.8-8.8,7.5-14.8,6.4c-19.3-3.4-26.7-23.3-24.2-39.4c1.9-12.8,9.1-23,14.7-34
	c6.4-12.5,15.2-24,14-39.2c15.1,5.8,15.4,30.3-2.5,44.8c14.3,8,25.9,3.9,36.5-9.6c5.7,8.1,13.5,12.9,23.3,13.9
	c1.6,0.2,4.8-1.9,4.9-3.2c0.6-5.4,0.3-10.9-3.6-15.5c-3.1-3.6-6.1-7.4-9.3-11.3c12.3-9.3,17.6-20.8,9.2-36
	c-5.7,7.1-12.9,12-22.3,13.3c-10.4,1.5-19.6-2.6-22-9.7c5.6-1.1,11.7-1.3,16.8-3.5c9.3-4.1,18.2-9.3,27.1-14.3
	c14-7.8,27.9-14.9,44.9-11.2c12.9,2.8,22.9,14.2,23,27.3c0.1,7.9-8.5,16.4-18.4,13.4c-5.3-1.6-7-8-2.8-11.4c2.4-1.9,5.6-2.8,8.9-4.3
	c-0.3-2.5,0.2-5.9-1.1-8.1c-6.1-10.5-25-11.2-33.1-2.1c-9.7,10.9-8,34.4,9,42.4c-7.8,4.7-13.8,10.4-15.7,19.8
	c-1.9,9.1-0.7,17.1,5.8,24.5c0.7-1.7,1.3-2.8,1.5-3.9c2.4-11.3,9.1-18.6,20-22.5c7.2-2.6,14.2-5.8,20.9-9.4
	c11.3-6.1,20.2-14.8,24.2-27.2c1.8-5.6,1.8-11.8,2.6-17.6c17.2,6.9,39.6-11.8,31.5-27.6c-8.6,2.5-17.2,2.2-26.1,1.1
	c-11.5-1.4-21.2-7.1-31.5-11.4c-12.4-5.2-24.7-9.9-38.5-8.7c-3.9,0.3-7.8,0-11.3,0c1.5-3.9,3.5-7.4,4.1-11.1
	c1.4-9-2.6-12.5-10.6-10.3c-6.7,1.9-12.7,4.7-16.8,11.7c-3.4-8.9-9.6-13.8-17.8-16.5c-16.4-5.4-37.9-1.7-42.9,19.8
	c-1.9,8.1-0.1,14.8,6.5,20.2c5.3,4.4,11.1,4.2,17.2,3.4c-1.1-4.4-3.1-8.3-2.7-12c0.7-7.3,13.7-10.4,19.7-5.1
	c6,5.3,7.9,18.8,1.1,25.5c-7,6.9-15.6,9.3-25.4,8.7c-9.8-0.6-17.5-4.8-23.2-12.4c-9.2-12.4-9.9-26.5-4.8-40.5
	c3.8-10.4,10.4-19.2,21.6-23.3c13.9-5.1,28.1-4.4,41.8,0c27.8,8.9,52.8,23.8,78.3,37.3c19.1,10.2,38.8,13.7,59.5,13.4
	c11.9-0.2,24-2.2,35.1-7.7c2.5-1.2,5.9-2.8,8.2-2.1c8.4,2.5,16.7,5.5,24.7,8.9c4.2,1.7,7.8,4.6,11.8,7c6.6-17.1-1.3-31-21.3-40.8
	c6.8-8.8,14.9-16.2,24.4-21.9c9.6-5.7,20-7.5,31.2-6.7c10.2,0.7,15.1,7.6,12.2,17.5c-2.1,7.1-10.7,7.9-15.1,5.6
	c-5.8-3-6.9-6.9-5-17.1c-4.2,2.1-8.1,2.9-10.3,5.3c-7.7,8.2-6.5,23,2.1,30.4c19.3,16.6,46.3,6.6,53.3-14.3
	c1.6-4.9,1.8-10.3,2.7-15.7c0.5,0.2,1.3,0.6,2,0.9c17.7,7.2,35.8,12.4,55.2,9.4c15.3-2.4,27.9-10,37.8-22.9
	c-0.4,0.1-0.8,0.2-1.2,0.4c1.8-1,3.5-2.2,5.1-3.6c3.7-3.3,6.2-7.5,9-11.5C555.1-3,547.8-2.4,540.6-2.5z M11.5,81.2
	c0-0.5,0-1.1,0.1-1.6c0,0,0.1,0.1,0.1,0.1c0.1,0.1,0.2,0.2,0.3,0.3C11.8,80.3,11.6,80.7,11.5,81.2z"/>
</svg>
