<?xml version="1.0" encoding="UTF-8"?>
<svg width="1267px" height="136px" viewBox="0 0 1267 136" version="1.1" xmlns="http://www.w3.org/2000/svg" xmlns:xlink="http://www.w3.org/1999/xlink">
    <g id="2019-09-11_in-the-know_logos_horizontal" stroke="none" stroke-width="1" fill="none" fill-rule="evenodd">
        <path d="M28.739,133.323 L3.568,133.323 C1.598,133.323 0,131.726 0,129.755 L0,6.897 C0,4.926 1.598,3.329 3.568,3.329 L28.739,3.329 C30.71,3.329 32.308,4.926 32.308,6.897 L32.308,129.755 C32.308,131.726 30.71,133.323 28.739,133.323" id="Fill-1" fill="#0A0B09"/>
        <path d="M167.363,133.323 L147.744,133.323 C146.667,133.323 145.644,132.858 144.936,132.048 L86.859,65.599 C85.774,64.358 83.729,65.126 83.729,66.775 L83.729,129.593 C83.729,131.653 82.059,133.323 79.999,133.323 L55.151,133.323 C53.091,133.323 51.421,131.653 51.421,129.593 L51.421,7.059 C51.421,4.999 53.091,3.329 55.151,3.329 L74.366,3.329 C75.455,3.329 76.49,3.805 77.199,4.632 L135.643,72.877 C136.722,74.136 138.785,73.374 138.785,71.715 L138.785,7.059 C138.785,4.999 140.455,3.329 142.515,3.329 L167.363,3.329 C169.423,3.329 171.093,4.999 171.093,7.059 L171.093,129.593 C171.093,131.653 169.423,133.323 167.363,133.323" id="Fill-3" fill="#0A0B09"/>
        <path d="M296.877,35.763 L296.877,129.755 C296.877,131.726 295.28,133.323 293.31,133.323 L268.139,133.323 C266.168,133.323 264.57,131.726 264.57,129.755 L264.57,35.763 C264.57,33.793 262.973,32.196 261.002,32.196 L226.655,32.196 C224.684,32.196 223.087,30.598 223.087,28.627 L223.087,6.897 C223.087,4.926 224.684,3.329 226.655,3.329 L334.602,3.329 C336.573,3.329 338.17,4.926 338.17,6.897 L338.17,28.627 C338.17,30.598 336.573,32.196 334.602,32.196 L300.446,32.196 C298.475,32.196 296.877,33.793 296.877,35.763" id="Fill-4" fill="#0A0B09"/>
        <path d="M462.88,133.323 L437.702,133.323 C435.732,133.323 434.136,131.727 434.136,129.758 L434.136,88.14 C434.136,86.171 432.54,84.575 430.571,84.575 L384.748,84.575 C382.779,84.575 381.183,86.171 381.183,88.14 L381.183,129.758 C381.183,131.727 379.587,133.323 377.618,133.323 L352.44,133.323 C350.472,133.323 348.875,131.727 348.875,129.758 L348.875,6.894 C348.875,4.925 350.472,3.329 352.44,3.329 L377.618,3.329 C379.587,3.329 381.183,4.925 381.183,6.894 L381.183,51.953 C381.183,53.921 382.779,55.518 384.748,55.518 L430.571,55.518 C432.54,55.518 434.136,53.921 434.136,51.953 L434.136,6.894 C434.136,4.925 435.732,3.329 437.702,3.329 L462.88,3.329 C464.849,3.329 466.445,4.925 466.445,6.894 L466.445,129.758 C466.445,131.727 464.849,133.323 462.88,133.323" id="Fill-5" fill="#0A0B09"/>
        <path d="M521.242,55.135 L571.649,55.135 C573.619,55.135 575.216,56.733 575.216,58.703 L575.216,79.096 C575.216,81.066 573.619,82.664 571.649,82.664 L521.242,82.664 C519.271,82.664 517.674,84.261 517.674,86.231 L517.674,101.654 C517.674,103.625 519.271,105.222 521.242,105.222 L580.06,105.222 C582.03,105.222 583.627,106.819 583.627,108.79 L583.627,129.755 C583.627,131.726 582.03,133.323 580.06,133.323 L488.935,133.323 C486.964,133.323 485.367,131.726 485.367,129.755 L485.367,6.897 C485.367,4.926 486.964,3.329 488.935,3.329 L580.06,3.329 C582.03,3.329 583.627,4.926 583.627,6.897 L583.627,27.863 C583.627,29.834 582.03,31.43 580.06,31.43 L521.242,31.43 C519.271,31.43 517.674,33.028 517.674,34.999 L517.674,51.568 C517.674,53.538 519.271,55.135 521.242,55.135" id="Fill-6" fill="#0A0B09"/>
        <path d="M675.764,108.265 L675.764,129.775 C675.764,131.735 674.175,133.323 672.215,133.323 L647.005,133.323 C645.045,133.323 643.456,131.735 643.456,129.775 L643.456,6.878 C643.456,4.918 645.045,3.329 647.005,3.329 L672.215,3.329 C674.175,3.329 675.764,4.918 675.764,6.878 L675.764,57.682 C675.764,59.321 677.794,60.085 678.874,58.853 L726.511,4.538 C727.185,3.77 728.157,3.329 729.179,3.329 L758.018,3.329 C761.061,3.329 762.693,6.909 760.697,9.206 L718.155,58.154 C717.066,59.407 716.991,61.248 717.975,62.585 L765.853,127.671 C767.577,130.015 765.903,133.323 762.994,133.323 L732.39,133.323 C731.281,133.323 730.236,132.805 729.564,131.921 L695.629,87.27 C694.948,86.374 693.615,86.332 692.878,87.182 L676.63,105.942 C676.071,106.587 675.764,107.412 675.764,108.265" id="Fill-7" fill="#0A0B09"/>
        <g id="Group-13" transform="translate(777.000000, 0.000000)">
            <path d="M116.574,133.323 L96.712,133.323 C95.684,133.323 94.706,132.879 94.029,132.105 L35.907,65.603 C34.82,64.36 32.773,65.128 32.773,66.78 L32.773,129.76 C32.773,131.728 31.178,133.323 29.21,133.323 L4.029,133.323 C2.061,133.323 0.466,131.728 0.466,129.76 L0.466,6.892 C0.466,4.924 2.061,3.329 4.029,3.329 L23.486,3.329 C24.527,3.329 25.516,3.784 26.193,4.575 L84.685,72.874 C85.764,74.134 87.83,73.371 87.83,71.71 L87.83,6.892 C87.83,4.924 89.425,3.329 91.393,3.329 L116.574,3.329 C118.541,3.329 120.137,4.924 120.137,6.892 L120.137,129.76 C120.137,131.728 118.541,133.323 116.574,133.323" id="Fill-8" fill="#0A0B09"/>
            <path d="M240.95,68.326 C240.95,47.871 225.85,30.666 204.822,30.666 C183.793,30.666 168.691,47.871 168.691,68.326 C168.691,88.781 183.793,105.986 204.822,105.986 C225.85,105.986 240.95,88.781 240.95,68.326 Z M273.83,68.326 C273.83,106.177 244.2,136 204.822,136 C165.633,136 136.001,106.177 136.001,68.326 C136.001,30.475 165.633,0.652 204.822,0.652 C244.2,0.652 273.83,30.475 273.83,68.326 L273.83,68.326 Z" id="Fill-10" fill="#0A0B09"/>
            <path d="M428.57,134.088 L402.58,134.088 C401.04,134.088 399.68,133.103 399.2,131.644 L375.51,59.884 C374.97,58.252 372.66,58.252 372.12,59.884 L348.43,131.644 C347.95,133.103 346.59,134.088 345.05,134.088 L319.06,134.088 C317.51,134.088 316.14,133.09 315.67,131.618 L275.9,7.979 C275.16,5.681 276.88,3.329 279.29,3.329 L305.98,3.329 C307.55,3.329 308.94,4.36 309.39,5.866 L331.31,78.872 C331.81,80.533 334.14,80.577 334.7,78.935 L359.61,5.75 C360.1,4.302 361.46,3.329 362.99,3.329 L384.65,3.329 C386.17,3.329 387.53,4.298 388.02,5.74 L412.93,78.742 C413.49,80.383 415.83,80.34 416.33,78.68 L438.24,5.863 C438.69,4.359 440.08,3.329 441.65,3.329 L468.34,3.329 C470.75,3.329 472.47,5.681 471.73,7.979 L431.96,131.618 C431.49,133.09 430.12,134.088 428.57,134.088" id="Fill-11" fill="#0A0B09"/>
            <path d="M489.36,117.898 C489.36,121.231 489.29,124.566 489.37,127.897 C489.47,131.912 487.46,133.649 483.59,133.635 C476.58,133.611 469.56,133.58 462.54,133.644 C458.74,133.678 457.11,131.697 457.1,128.13 C457.07,121.114 457.05,114.096 457.1,107.081 C457.12,103.522 458.77,101.552 462.58,101.593 C469.6,101.669 476.62,101.653 483.63,101.598 C487.59,101.568 489.44,103.429 489.37,107.373 C489.31,110.88 489.35,114.389 489.36,117.898" id="Fill-12" fill="#1A1919"/>
        </g>
    </g>
</svg>