<svg xmlns="http://www.w3.org/2000/svg" viewBox="0 0 562.11 561.37"><g><path d="m364.25,0c2.99,5.58,5.97,11.17,8.65,16.18,10.91-2.93,22.79-7.53,35.06-9.05,13.3-1.64,27.08-1.56,40.43-.16,19.3,2.03,37.63,8.58,55.59,15.89,2.98,1.21,6.1,2.17,8.95,3.63,13.72,7.01,27.72,5.58,41.84,1.65,2.24-.62,4.45-1.33,7.34-2.2-9.97,12.94-22.49,20.49-37.83,22.9-19.35,3.05-37.46-2.17-55.16-9.35-.74-.3-1.47-.64-2.02-.89-.89,5.44-1.07,10.82-2.7,15.71-6.99,20.96-33.98,30.95-53.31,14.34-8.58-7.37-9.81-22.18-2.09-30.37,2.27-2.41,6.17-3.27,10.34-5.33-1.97,10.18-.8,14.04,4.96,17.07,4.44,2.34,13.06,1.54,15.13-5.6,2.89-9.95-2.03-16.78-12.24-17.51-11.19-.8-21.63.94-31.2,6.66-9.49,5.67-17.57,13.04-24.41,21.88,20.02,9.84,27.95,23.77,21.33,40.85-3.91-2.38-7.59-5.28-11.75-7.02-8.08-3.38-16.33-6.45-24.73-8.9-2.35-.68-5.68.84-8.2,2.09-11.09,5.51-23.24,7.46-35.13,7.68-20.68.38-40.47-3.2-59.52-13.36-25.49-13.59-50.56-28.49-78.31-37.35-13.72-4.38-27.86-5.07-41.78,0-11.15,4.07-17.78,12.9-21.58,23.29-5.11,13.95-4.43,28.07,4.78,40.48,5.61,7.57,13.4,11.8,23.16,12.38,9.77.58,18.37-1.8,25.36-8.72,6.75-6.69,4.82-20.21-1.15-25.51-6.05-5.36-18.98-2.23-19.72,5.09-.37,3.67,1.65,7.59,2.74,12-6.06.82-11.87.99-17.18-3.36-6.6-5.42-8.43-12.13-6.54-20.25,5.01-21.5,26.52-25.15,42.88-19.78,8.18,2.68,14.35,7.54,17.76,16.47,4.08-7,10.08-9.8,16.79-11.69,8.02-2.26,12.03,1.27,10.61,10.26-.58,3.69-2.6,7.14-4.1,11.06,3.46,0,7.39.27,11.26-.05,13.78-1.15,26.1,3.49,38.47,8.72,10.25,4.33,19.99,9.96,31.46,11.39,8.88,1.1,17.47,1.36,26.09-1.1,8.18,15.81-14.28,34.52-31.47,27.62-.79,5.78-.78,11.97-2.58,17.58-3.99,12.44-12.85,21.19-24.16,27.25-6.72,3.61-13.76,6.76-20.93,9.36-10.9,3.95-17.65,11.16-20.04,22.51-.24,1.14-.85,2.2-1.53,3.89-6.53-7.38-7.67-15.35-5.82-24.45,1.9-9.37,7.98-15.05,15.73-19.77-17-7.98-18.74-31.5-9.01-42.4,8.13-9.11,27.03-8.38,33.14,2.11,1.32,2.27.79,5.63,1.07,8.14-3.31,1.57-6.5,2.44-8.87,4.34-4.24,3.38-2.52,9.86,2.79,11.43,9.95,2.95,18.54-5.57,18.44-13.43-.17-13.09-10.18-24.52-23.04-27.27-17.03-3.64-30.92,3.49-44.89,11.25-8.93,4.96-17.76,10.2-27.08,14.3-5.15,2.26-11.23,2.43-16.83,3.53,2.35,7.09,11.56,11.12,22,9.67,9.46-1.31,16.61-6.26,22.34-13.35,8.44,15.25,3.11,26.73-9.16,36.03,3.21,3.92,6.18,7.66,9.27,11.31,3.85,4.57,4.19,10.07,3.57,15.51-.15,1.31-3.33,3.4-4.92,3.24-9.81-.99-17.57-5.83-23.27-13.91-10.66,13.52-22.25,17.6-36.53,9.64,17.98-14.56,17.7-39.04,2.55-44.84,1.14,15.25-7.67,26.71-14.05,39.22-5.59,10.96-12.79,21.17-14.71,33.96-2.42,16.12,4.92,36.07,24.24,39.43,5.97,1.04,10.99-1.66,14.81-6.42,3.28-4.09,3.99-8.83,1.83-13.31-1.02-2.1-4.06-4.02-6.44-4.4-1.66-.26-3.87,2.1-5.62,3.55-.68.56-.8,1.82-1.12,2.78-2.07,6.01-6.49,7.06-11.47,2.99-10.17-8.29-12-30.51,7.26-36.76,11.43-3.71,26.15-1.63,34.49,13.81,5.82-11.53,15.21-17.19,27.66-16.58,5.57.27,11.87.21,15.56,6.22-.26.35-.49,1-.83,1.07-14.67,2.77-22.48,12.33-26.96,25.95-4.56,13.86-11.77,26.2-24.2,34.68-8.39,5.72-17.46,8.92-28.39,6.52,3.6,9.35,1.34,17.5-4.17,25.24-5.53,7.77-12.46,10.17-23.03,7.37,4.41-14.48,2.31-28.44-3.41-42.08-4.2-10.03-8.96-19.84-12.67-30.04-1.88-5.17-2.38-10.96-2.79-16.52-.46-6.16-.1-12.38-.1-19.06-3.03,1.57-5.41,3.64-7.99,3.94-4.02.47-8.19-.14-12.25-.65-.66-.08-1.56-2.07-1.53-3.16.25-9.32,3.39-17.2,12-22.48-8.7-4.14-14.61-10.76-17-19.89-2.34-8.91-2.25-17.83,1.71-26.55,3.82-8.42,10.71-12.26,19.14-14.43,7.64-1.97,14.04-.55,19.36,5.6,4.63,5.34,4.58,11.49,4,18.79-1.79-.92-3.17-1.58-4.51-2.32-6.1-3.37-11.98-1.37-13.99,4.86-1.64,5.09-2.4,10.22,2.21,14.24,5.08,4.43,11.16,5.66,17.64,4.08,9.61-2.35,13.22-10.23,15.37-18.53,2.46-9.47.25-18.43-5.37-26.58-7.76-11.25-24.69-16.55-36.72-14.33-8.44,1.56-15.99,4.9-23.05,10.1-9.78,7.2-12.94,17.14-13.73,28.34-1.26,17.9,3.7,34.26,12.01,50.01,9.56,18.11,18.04,36.78,27.64,54.86,5.79,10.9,11.14,21.94,12.59,34.18,1.16,9.78.77,19.75.82,29.64.06,12.83-4.53,24.6-8.19,36.65-1.18,3.88.06,9.08,1.66,13.08,3.63,9.07,8.17,17.77,12.38,26.68-10.99,6.02-29.34,1.57-39.65-21.46-13.82,10.61-24.66,23.4-28.29,40.56-1.51,7.14-2.1,15.17,1.58,22.49,2.91,5.78,8.1,6.48,13.19,5.3,3.03-.7,6.5-3.32,7.98-6.05,2.3-4.24,1.33-9.19-2.22-12.73-3.62-3.6-8.26-3.45-12.9-1.98-1.33-6.05,1.89-10.31,9.25-13.39,13.13-5.48,25.23,2.67,29.9,14,5.66,13.74,2.72,25.65-6.41,36.02-5.49,6.24-12.96,10.53-21.98,10.42-2.25-.03-4.49,0-7.01,0,2.53,7.41,5.56,14.39,7.27,21.67,3.51,14.99,6.28,30.16.75,45.34-4.13,11.34-10.4,21.17-19.92,28.03,1.4-7.34,3.26-14.89,4.22-22.55,1.58-12.53-3.46-23.6-8.07-34.91-7.89-19.35-14.15-39.21-16.92-60.11-3.31-25.01,1.83-48.48,11.06-70.81C11.48,370.45,5.74,367.9,0,365.36c0-1.04,0-2.08,0-3.12,4.52-5.56,9.05-11.12,13.6-16.72-1.77-2.38-4.62-5.25-6.27-8.69C4.49,330.91,2.4,324.64,0,318.52c0-2.08,0-4.16,0-6.25.35-1.23.84-2.43,1.01-3.69,1.4-10.12,2.7-20.26,4.09-30.38,1.34-9.78,4.02-19.58,3.81-29.32-.3-13.82-2.7-27.59-4.17-41,23.85,15.5,31.87,38.27,25.77,65.73,5.3.52,10.73-.28,14.8,1.71,12.58,6.14,19.01,15.89,16.08,32.02-1.7,9.33-11.35,17.55-20.26,16.18-4.58-.7-8.84-3.45-13.53-5.4.88-1.06,1.04-1.46,1.29-1.54,4.44-1.4,7.2-4.12,6.4-9.05-.46-2.86-1.44-5.52-5.27-5.71-4.75-.23-8.59,1.93-9.45,7.16-1.19,7.21.41,14.21,5.09,20.02,5.54,6.88,13.39,8.64,21.43,6.87,9.66-2.12,17.4-7.95,19.26-18.12,1.3-7.07.74-14.6.18-21.87-1.07-14.04-5.29-27.39-11.5-39.92-10.04-20.26-21.52-39.83-30.85-60.4-7.97-17.59-12.49-36.26-9.72-56.13,2.6-18.65,10.67-33.84,26.8-43.7,7.5-4.59,16.16-7.28,24.27-10.82-4.97-4.22-11.38-8.65-19.15-7.71-18.34,2.21-30.31,12.51-34.92,32.25-1.12-2.7-1.89-3.83-2.03-5.02-.8-7.12-1.63-14.24-2.1-21.38-.51-7.79,2.68-14.22,7.97-19.79,5.89-6.2,13.61-8.74,22.06-10.72C18.59,40.34,4.12,25.86,2.06,2.01c23.8,2.03,37.59,17.05,49.9,35.11,2.98-12,7.63-23.12,19.93-27.63,11.75-4.31,23.84-3.15,36.69,1.6-13.1,3.81-23.13,10.01-28.53,22.26-5.33,12.09-3.4,26.29,6.06,33.2,1.67-20.05,12.45-34.59,29.16-44.4,13.37-7.85,28.21-9.82,43.95-7.79,23.3,3.01,44.21,11.9,64.23,23.39,19.92,11.43,39.75,22.91,62.72,27.34,10.28,1.98,20.51,4.05,30.97,1.48,13.83-3.4,20.3-15.94,18.94-28.42-1.18-10.84-12.86-19.13-25.4-18.27-2.25.15-5.64,1.03-6.36,2.58-1.48,3.17-2.98,7.68-1.74,10.39,1.31,2.85,6.05,3.86,9.49,1.46,2.05-1.43,3.5-3.7,5.22-5.6,6.52,7.05,8.21,15.68,4.3,22.3-6.38,10.82-26.48,14.8-36.24,6.86-8.57-6.97-14.56-15.31-10.59-27.76-13.65,2.61-26.45,3.4-39.21-1.79-13.71-5.58-22.82-14.23-28.46-24.82,6.47,1.27,13.07,2.71,19.73,3.83,13.27,2.23,26.59,1.35,39.81-.23,10.62-1.28,21.15-3.33,31.73-5.03C302.62,1.38,306.9.69,311.18,0c2.43,0,4.86,0,7.29,0,2.2.6,4.57.86,6.58,1.86,7.32,3.64,14.51,7.53,21.09,10.98,5.02-4.02,10.53-8.43,16.05-12.84.69,0,1.39,0,2.08,0Z"/></g></svg>