<svg xmlns="http://www.w3.org/2000/svg" viewBox="0 0 164 164">
  <g>
    <path
      d="m100.36,26.83c-3.82-3.08-6.9-9.01-7.14-13.11-.29-4.68,3.35-8.7,7.21-9.98,5.87-1.95,9.25,1.1,6.42,4.25-2.28,2.55-3.58,4.75-4.5,7.2s-.71,6.2.91,9.04c1.96,3.44.22,5.08-2.89,2.59h-.01Z" />
    <path
      d="m105.98,43.44c-3.81-2.36-10.12-3.57-14.02-2.94-4.46.71-7.35,4.36-7.62,7.62-.41,4.97,3.26,6.99,5.54,4.15,1.84-2.29,3.59-3.74,5.67-4.96,2.08-1.21,5.64-1.8,8.7-1.1,3.7.84,4.82-.85,1.73-2.77Z" />
    <path
      d="m152.03,79.52c1.81,2.75,5.67,5.51,8.47,6.29,3.2.9,6.25-.65,7.45-2.74,1.81-3.2-.03-5.68-2.43-4.49-1.93.97-3.55,1.4-5.31,1.56-1.76.17-4.33-.53-6.16-1.94-2.21-1.71-3.49-.92-2.01,1.32h0Z" />
    <path
      d="m136.18,68c-.18,3.29-2.11,7.62-4.13,9.71-2.31,2.39-5.73,2.6-7.81,1.39-3.18-1.85-2.85-4.92-.18-5.1,2.16-.14,3.77-.59,5.38-1.34,1.61-.74,3.46-2.65,4.33-4.79,1.05-2.59,2.55-2.56,2.4.12h.01Z" />
    <path
      d="m60.73,7.8c-2.06.91-5.34,4.25-6.39,6.72-.71,1.66-1.24,1.58-2.57-.24-1.94-2.65-5.19-4.15-9.34-5.02-4.16-.87-36.26-.99-40.58-1.1-2.51-.07-2.45-2.02.08-2.02h58.66c1.28,0,1.43,1.08.15,1.65h-.01Z" />
    <path
      d="m161.48,108.46c-.91,2.06-4.25,5.34-6.72,6.39-1.66.71-1.58,1.25.24,2.58,2.65,1.94,4.15,5.19,5.02,9.35.86,4.15.99,36.26,1.1,40.58.07,2.5,2.01,2.43,2.01-.08v-58.66c0-1.28-1.08-1.43-1.65-.15h0Z" />
    <path
      d="m55.75,18.18c4.96-11.05,20.93-13.35,31.17-9.66,11.93,4.3,17.28,17.58,23.59,27.49,6.61,10.38,19.58,18.94,32.29,14.67,6.05-2.03,11.17-6.83,13.73-12.65,2.44-5.53,1.65-12.17-.73-17.57-4.64-10.51-20-16.57-27.8-5.92-6.06,8.27-.73,21.1,9.43,22.69,5.17.81,8.65-3.83,8.61-8.6-.02-2.43-1.53-4.52-3.27-6.07-.36-.32-.84-.68-1.37-1.03-.34,1.38-1.77,2.63-3.7,3.05-2.45.53-4.75-.48-5.14-2.27-.36-1.64,1.04-3.35,3.17-4.03.23-.08.44-.14.57-.17,4.84-1.07,9.74.51,12.88,4.43,3.2,4,2.04,10.1-1.75,13.31-8.65,7.34-21.59,3.47-26.07-6.46-2.19-4.86-.82-10.49,2.04-14.73,3.07-4.55,8.43-6.95,13.67-7.89,11.21-1.99,21.64,4.83,24.94,15.54,3.73,12.12-3.26,23.18-14.04,28.55-11.11,5.53-24.75,3.64-34.35-4.04-9.53-7.62-13.27-20.29-21.15-29.35-4.55-5.23-11.02-8.36-17.99-8.23-6.59.12-12.18,3.71-14.45,9.92-1.7,4.68-1.28,10.04,1.19,14.34,2.89,5.02,9.71,7.79,15.25,5.99,5.66-1.84,6.75-8.66,5.11-13.63-.88-2.68-2.94-5.01-5.52-6.14-2.17-.96-4.29-.41-5.25,1.27.83.8,1.37,2.05,1.37,3.47,0,2.41-1.55,4.37-3.46,4.37s-3.46-1.96-3.46-4.37c.01-5.48,5.73-7.2,10.31-7.56,5.41-.42,9.63,3.42,11.25,8.34,4.1,12.43-10.31,18.72-20.35,16.75-11.02-2.16-15.01-14.27-10.73-23.81h0Z" />
    <path
      d="m127.19,97.02c.32-6.13,3.73-11.17,9.72-12.85,7.19-2.01,16.09,2.37,15.43,10.66-.29,3.69-2.91,6.31-6.36,7.2-3.13.81-7.67.68-9.82-2.11-1.27-1.62-1.31-3.7-.11-4.64,1.21-.94,3.21-.39,4.47,1.23.74.94,1.05,2.04.95,2.97,2.67,2.8,5.29-1.93,5.68-4.37.55-3.45-1.48-6.62-4.26-8.46-3.21-2.12-6.6.28-8.4,3.04-1.94,2.97-2.36,6.82-2.08,10.28.59,7.2,8.63,12.06,15.4,10.35,6.79-1.72,11.09-8.65,10.66-15.42-.45-7-6.02-12.04-10.59-16.72-4.72-4.83-9.91-9.6-9.13-16.95.62-5.88,5.02-9.28,10.5-10.35,5.2-1.01,11.5.51,13.61,5.89,1.8,4.56-.31,9.22-4.62,11.39-3.8,1.92-9.86.78-11.71-3.29-1.01-2.03-.47-4.35,1.2-5.18s3.84.15,4.85,2.18c.68,1.37.64,2.87.04,3.95.58.71,1.27,1.29,1.87,1.06,1.42-.53,2.39-1.97,3.11-3.22,1.73-3.03.54-6.66-1.65-9.06-2.34-2.57-5.91-2.21-8.52-.33-2.75,1.98-3.65,5.73-3.61,8.92.09,7.19,7.51,12.53,12.03,17.27,4.44,4.65,8.22,9.9,7.81,16.66-.81,13.15-16.98,18.61-27.72,14.01-6-2.56-9.1-7.67-8.76-14.11h.01Z" />
    <path
      d="m80.13,4.88c4.24-2.47,10.88-3.23,14.79-1.99,4.48,1.4,6.93,6.24,6.75,10.29-.28,6.18-4.32,8.25-6.26,4.48-1.57-3.04-3.16-5.03-5.12-6.77s-5.53-2.88-8.77-2.37c-3.91.61-4.83-1.61-1.39-3.62h0Z" />
    <path
      d="m142.17,2.48c6.93-3.28,16.9-3.21,22.29-.34,6.17,3.25,8.37,11.89,6.94,18.66-2.19,10.33-8.72,12.97-10.49,6.25-1.42-5.43-3.18-9.1-5.57-12.41s-7.29-5.96-12.19-5.77c-5.92.22-6.62-3.69-.99-6.36v-.02Z" />
    <path
      d="m156.19,84.13c.5,4.1,3.19,8.36,5.77,9.7,2.95,1.54,7.02-.44,9.38-3.35,3.6-4.45,2.93-8.16-.26-6.63-2.57,1.24-4.53,1.73-6.49,1.83-1.97.11-4.35-1.11-5.57-3.28-1.48-2.62-3.25-1.59-2.84,1.74h0Z" />
    <path
      d="m163.11,16.91c6.48,4.11,11.74,12.58,12.19,18.66.54,6.95-5.58,13.43-12.07,15.83-9.9,3.67-15.63-.45-10.88-5.53,3.83-4.1,5.99-7.55,7.52-11.34s1.14-9.35-1.64-13.39c-3.35-4.89-.42-7.56,4.85-4.24h.02Z" />
    <path
      d="m162.69,51.74c7.66-.37,16.84,3.53,20.71,8.25,4.44,5.37,3.16,14.19-.76,19.89-5.99,8.69-13.04,8.63-12.08,1.74.77-5.56.56-9.62-.37-13.6-.93-3.98-4.44-8.3-9.04-10.01-5.55-2.07-4.69-5.95,1.53-6.26v-.02Z" />
    <path
      d="m148.49,49.09c6.13-1.79,15.86-1.77,21.65-.22,6.63,1.75,10.42,6.42,10.31,10.09-.17,5.6-6.04,7.04-9.03,3.4-2.42-2.94-4.83-4.92-7.78-6.71s-8.24-3.21-12.97-3.1c-5.72.13-7.15-1.98-2.18-3.44h0Z" />
  </g>
</svg>