<svg xmlns="http://www.w3.org/2000/svg" viewBox="0 0 15.71 20.29">
  <g>
    <path
      d="m6.57,13.23c-.02.06-.03.11-.05.16-.75,2.92-.83,3.57-1.59,4.92-.37.64-.78,1.26-1.23,1.84-.05.07-.1.15-.2.13-.11-.02-.12-.12-.13-.21-.12-.89-.19-1.78-.16-2.67.04-1.17.18-1.57,1.69-7.89.02-.1,0-.18-.03-.26-.36-.97-.43-1.96-.12-2.96.68-2.16,3.13-2.32,3.55-.54.26,1.1-.43,2.54-.97,4.67-.44,1.76,1.62,3.01,3.39,1.72,1.63-1.18,2.26-4.02,2.14-6.03-.24-4.01-4.63-4.87-7.42-3.58-3.19,1.48-3.92,5.44-2.48,7.25.18.23.32.37.26.6-.09.36-.17.73-.27,1.09-.07.27-.3.37-.57.26-.53-.21-.97-.55-1.33-1-1.23-1.52-1.58-4.52.04-7.06C2.89.85,6.22-.29,9.27.06c3.64.41,5.94,2.9,6.37,5.72.2,1.29.05,4.45-1.75,6.69-2.08,2.57-5.44,2.74-6.99,1.16-.12-.12-.22-.26-.33-.41Z">
    </path>
  </g>
</svg>