<?xml version="1.0" standalone="no"?>
<!DOCTYPE svg PUBLIC "-//W3C//DTD SVG 20010904//EN"
 "http://www.w3.org/TR/2001/REC-SVG-20010904/DTD/svg10.dtd">
<svg version="1.0" xmlns="http://www.w3.org/2000/svg"
 width="599.000000pt" height="599.000000pt" viewBox="0 0 599.000000 599.000000"
 preserveAspectRatio="xMidYMid meet">
<metadata>
Created by potrace 1.14, written by Peter Selinger 2001-2017
</metadata>
<g transform="translate(0.000000,599.000000) scale(0.100000,-0.100000)"
fill="#000000" stroke="none">
<path d="M3046 5895 c-45 -22 -47 -24 -27 -34 12 -7 21 -21 20 -34 0 -12 0
-65 0 -117 -1 -86 -3 -165 -7 -197 -1 -6 -11 -15 -22 -18 -37 -12 -11 -24 50
-23 33 1 60 4 60 6 0 3 -7 14 -16 23 -14 16 -16 43 -15 176 1 87 4 177 7 201
3 23 4 42 2 41 -2 0 -25 -11 -52 -24z"/>
<path d="M3374 5849 c-3 -5 2 -12 11 -16 14 -5 16 -15 11 -57 -3 -28 -8 -62
-11 -76 -3 -14 -13 -59 -21 -100 -20 -105 -22 -110 -52 -122 -26 -10 -24 -11
33 -24 156 -33 194 -34 257 -6 25 11 57 32 72 48 61 63 89 179 59 237 -11 23
-72 70 -93 73 -3 0 -30 6 -61 12 -30 7 -66 15 -80 17 -13 3 -45 9 -72 14 -27
5 -50 5 -53 0z m222 -55 c58 -27 79 -68 79 -149 0 -58 -5 -78 -28 -117 -45
-78 -113 -100 -189 -64 -51 25 -52 29 -23 175 2 9 8 45 15 81 7 36 20 71 28
78 22 17 77 15 118 -4z"/>
<path d="M2799 5756 c-61 -21 -84 -46 -81 -84 4 -40 22 -38 35 4 5 16 16 37
25 47 19 21 68 23 76 1 13 -34 5 -53 -31 -75 -103 -63 -138 -113 -115 -163 18
-40 57 -41 107 -5 25 18 45 37 46 43 0 6 6 -4 13 -23 15 -42 40 -47 73 -15 26
26 25 46 -1 25 -13 -11 -16 -9 -20 11 -6 26 -15 128 -16 174 0 61 -44 84 -111
60z m66 -164 c-8 -49 -28 -78 -60 -86 -55 -14 -74 42 -30 84 29 27 76 50 88
43 4 -3 5 -21 2 -41z"/>
<path d="M2533 5732 c-21 -3 -93 -76 -93 -94 0 -4 -4 -8 -10 -8 -5 0 -10 9
-10 21 0 11 -5 29 -10 39 -10 19 -11 19 -45 -1 -38 -23 -45 -39 -17 -39 14 0
21 -14 31 -62 7 -35 16 -80 20 -100 7 -30 5 -42 -10 -59 -11 -12 -18 -23 -17
-25 5 -5 99 16 116 25 15 9 15 10 1 11 -25 0 -37 21 -44 73 -11 80 33 177 82
177 10 0 22 -22 29 -55 19 -90 27 -140 27 -167 0 -16 1 -28 4 -28 2 0 24 5 48
11 l45 11 -23 19 c-22 17 -27 32 -53 178 -5 28 -26 70 -37 73 -7 2 -22 2 -34
0z"/>
<path d="M1843 5663 c-18 -7 -16 -50 2 -57 21 -8 48 33 33 51 -11 14 -15 15
-35 6z"/>
<path d="M2133 5633 c-43 -22 -64 -44 -83 -86 -32 -70 -8 -160 53 -197 118
-72 256 79 199 216 -27 63 -112 97 -169 67z m48 -33 c22 0 77 -54 90 -88 10
-27 12 -73 3 -97 -10 -25 -59 -46 -93 -39 -35 7 -88 54 -101 90 -12 30 -13 85
-2 100 14 20 57 44 70 39 8 -3 22 -5 33 -5z"/>
<path d="M3831 5591 c-12 -12 -21 -33 -21 -48 l1 -28 23 26 c56 64 127 67 126
6 0 -23 -18 -40 -46 -43 -147 -16 -218 -73 -170 -137 22 -29 60 -30 129 -2 16
7 18 4 16 -16 -2 -13 0 -30 4 -36 11 -17 57 -16 80 1 18 14 24 32 7 21 -6 -4
-17 -4 -25 -1 -11 4 -7 24 20 102 19 53 35 106 35 119 0 32 -36 51 -102 54
-46 2 -60 -1 -77 -18z m99 -131 c0 -20 -25 -50 -61 -74 -54 -35 -109 24 -61
66 41 36 122 42 122 8z"/>
<path d="M1682 5529 c-10 -16 -10 -27 0 -55 10 -27 10 -39 0 -54 -16 -26 -16
-28 11 -23 19 4 28 -8 72 -93 28 -54 58 -102 67 -108 21 -13 52 13 67 55 l10
30 -26 -21 c-14 -11 -27 -19 -28 -18 -6 8 -82 156 -88 170 -4 12 4 23 26 37
l32 20 -37 -1 c-44 -1 -64 13 -73 53 -8 34 -16 36 -33 8z"/>
<path d="M1870 5520 c-36 -37 -37 -42 -7 -35 25 7 27 4 72 -99 30 -69 37 -103
24 -111 -5 -4 -9 -10 -9 -15 0 -11 56 7 89 29 l23 15 -21 8 c-21 7 -55 71 -99
183 -11 27 -24 51 -30 53 -6 2 -25 -11 -42 -28z"/>
<path d="M4100 5514 c0 -2 7 -10 17 -19 15 -16 13 -22 -23 -97 -21 -44 -50
-89 -62 -99 -28 -22 -22 -34 25 -54 47 -20 56 -19 41 4 -24 40 62 161 124 176
34 7 63 0 66 -17 3 -17 -51 -139 -79 -180 -26 -37 -24 -47 16 -64 44 -18 42
-19 37 14 -2 20 9 54 36 108 54 108 58 144 17 162 -27 13 -75 7 -117 -15 -32
-16 -35 -6 -13 37 12 22 12 31 3 36 -11 7 -88 14 -88 8z"/>
<path d="M1532 5360 c-40 -25 -82 -81 -82 -112 0 -26 34 -66 44 -50 3 5 2 23
-3 39 -12 42 10 93 42 93 51 0 60 -40 23 -98 -14 -20 -31 -59 -38 -85 -16 -62
1 -100 49 -105 25 -3 36 3 56 30 14 18 27 42 28 52 5 24 29 34 29 12 0 -17 27
-21 46 -8 16 10 34 47 34 69 0 15 -2 14 -16 -5 -15 -22 -17 -22 -35 -6 -10 9
-19 21 -19 26 0 15 -98 155 -113 161 -8 3 -28 -3 -45 -13z m93 -137 c19 -77
14 -102 -27 -124 -31 -17 -62 21 -52 65 8 38 41 86 59 86 7 0 16 -12 20 -27z"/>
<path d="M4443 5309 c-40 -12 -96 -68 -109 -111 -32 -107 77 -193 181 -143
l30 14 -35 -1 c-80 -3 -113 18 -125 81 -11 57 62 150 118 151 18 0 39 -10 57
-28 25 -25 28 -34 24 -73 l-5 -44 25 28 c14 15 26 36 26 47 0 18 -61 79 -83
81 -46 6 -76 5 -104 -2z"/>
<path d="M1283 5189 c-33 -12 -50 -52 -53 -124 l-1 -30 -29 33 c-16 17 -32 32
-34 32 -7 0 -33 -44 -41 -68 -6 -22 -5 -23 14 -12 25 13 23 15 100 -83 42 -54
52 -72 47 -92 -9 -34 1 -31 54 14 l45 38 -32 7 c-34 8 -53 25 -77 74 -36 70
-28 162 13 162 18 0 135 -132 148 -167 8 -20 26 -16 63 18 l35 30 -28 -4 c-25
-4 -36 5 -98 79 -78 93 -94 105 -126 93z"/>
<path d="M4652 5129 c-44 -22 -92 -81 -94 -115 -6 -83 41 -137 121 -139 81 -3
112 18 34 23 -75 5 -114 56 -94 123 6 20 19 43 29 52 18 16 20 16 43 -4 13
-12 40 -33 59 -48 19 -14 41 -32 49 -40 12 -11 17 -8 31 19 39 76 -20 150
-119 150 -9 0 -35 -10 -59 -21z m128 -19 c23 -23 26 -49 8 -73 -12 -15 -18
-12 -62 27 -44 40 -47 45 -30 55 29 16 62 13 84 -9z"/>
<path d="M1045 4987 c-9 -14 -16 -41 -15 -59 3 -59 2 -61 -26 -39 -15 12 -30
21 -34 21 -7 0 -40 -71 -40 -86 0 -2 9 0 19 6 11 5 23 10 26 10 12 0 135 -128
136 -141 1 -8 0 -22 -1 -32 -1 -15 2 -17 18 -8 23 12 82 78 82 91 0 6 -8 5
-19 -2 -28 -17 -64 5 -101 60 -37 56 -48 108 -27 129 12 12 19 13 37 3 37 -20
36 -1 -2 37 l-36 36 -17 -26z"/>
<path d="M2970 4953 c-24 -11 -30 -17 -20 -21 26 -9 28 -21 29 -155 2 -103 -1
-133 -13 -146 -14 -16 -12 -17 37 -15 28 1 53 2 55 3 1 0 -7 10 -19 22 -16 16
-20 32 -19 72 4 118 0 257 -7 256 -5 0 -24 -8 -43 -16z"/>
<path d="M2688 4936 c-51 -27 -53 -29 -30 -37 13 -5 22 -17 23 -31 0 -13 2
-31 4 -41 7 -35 18 -163 19 -209 1 -49 5 -55 22 -38 5 5 27 12 49 15 62 9 102
34 121 78 44 96 -5 196 -81 167 -14 -5 -38 -24 -55 -42 l-29 -33 -1 35 c-1 19
-3 44 -5 55 -2 11 -5 37 -7 58 -1 20 -2 37 -2 37 -1 0 -13 -7 -28 -14z m152
-136 c11 -6 24 -27 29 -48 24 -89 -23 -147 -99 -121 -21 8 -27 16 -28 48 -3
45 10 83 38 111 23 23 33 24 60 10z"/>
<path d="M3147 4943 c-12 -11 -7 -43 6 -43 19 0 36 20 30 36 -5 15 -25 19 -36
7z"/>
<path d="M3516 4891 c-34 -5 -37 -8 -24 -19 14 -11 14 -19 -4 -75 -10 -34 -20
-66 -22 -72 -26 -93 -40 -127 -59 -137 -22 -11 -22 -12 8 -24 17 -7 41 -13 55
-13 14 0 19 3 13 6 -28 11 -4 94 40 138 36 36 87 40 87 8 0 -22 -30 -124 -46
-155 -13 -24 -12 -27 6 -32 11 -3 29 -9 41 -12 18 -5 19 -4 8 13 -9 16 -7 33
11 92 28 91 29 102 18 124 -7 13 -19 17 -49 15 -21 -1 -39 -5 -39 -9 0 -7 -42
-20 -47 -15 -3 3 19 78 34 116 7 18 15 61 11 59 -2 -1 -21 -5 -42 -8z"/>
<path d="M5225 4852 c17 -32 -9 -64 -127 -157 -93 -74 -127 -96 -145 -92 -13
2 -23 2 -23 0 0 -7 42 -65 67 -93 12 -13 32 -43 45 -66 l22 -42 47 24 c65 32
73 48 21 39 -47 -8 -90 11 -115 49 l-17 25 134 105 c123 97 137 105 166 99
l32 -6 -23 28 c-40 48 -91 101 -84 87z"/>
<path d="M3125 4836 c-11 -6 -22 -12 -24 -14 -3 -1 3 -8 13 -15 14 -10 17 -22
12 -53 -3 -21 -5 -54 -6 -71 0 -19 -8 -41 -20 -53 l-20 -20 23 -1 c12 0 37 -2
55 -4 34 -4 41 5 18 24 -11 9 -13 34 -9 115 5 109 2 116 -42 92z"/>
<path d="M3292 4814 c-18 -7 -32 -17 -32 -23 0 -5 -2 -16 -5 -23 -3 -8 12 -34
35 -59 66 -71 69 -84 24 -107 -17 -9 -25 -7 -43 9 -11 11 -21 29 -21 40 0 32
-25 16 -28 -18 -3 -25 2 -32 25 -42 40 -16 90 -10 112 14 35 39 33 52 -19 111
-55 63 -56 66 -36 83 19 16 42 4 56 -30 15 -35 30 -29 30 12 0 16 -1 29 -3 29
-1 0 -16 4 -33 9 -21 6 -41 4 -62 -5z"/>
<path d="M4750 4810 c-8 -15 -6 -23 11 -38 l20 -20 -22 -21 c-20 -19 -45 -25
-86 -24 -7 1 -13 -3 -13 -8 0 -15 80 -10 116 7 42 20 57 38 57 70 0 46 -63 72
-83 34z"/>
<path d="M2507 4786 c-54 -29 -72 -67 -48 -105 7 -11 11 -6 16 20 13 70 64
100 80 48 5 -14 -7 -34 -44 -75 -57 -62 -66 -102 -30 -127 27 -20 54 -11 85
26 23 27 27 29 36 14 5 -9 15 -17 22 -17 19 0 62 37 54 46 -4 4 -14 1 -22 -5
-12 -11 -17 -6 -26 31 -31 124 -44 153 -70 156 -14 1 -37 -4 -53 -12z m68
-139 c-6 -62 -61 -98 -79 -51 -12 30 52 113 75 98 5 -3 7 -24 4 -47z"/>
<path d="M2279 4783 c-1 -5 -3 -31 -4 -60 -2 -44 1 -52 19 -57 11 -3 17 -8 13
-12 -4 -4 -3 -12 2 -18 4 -6 16 -35 27 -64 10 -29 27 -60 37 -70 18 -16 20
-15 48 17 27 33 32 58 7 33 -26 -26 -32 -19 -74 87 -17 43 -17 44 7 62 l24 19
-31 0 c-32 0 -44 14 -44 51 0 18 -28 28 -31 12z"/>
<path d="M834 4759 c-52 -26 -71 -116 -39 -180 50 -96 168 -129 227 -63 32 37
43 133 17 150 -5 3 -9 2 -8 -3 11 -61 -36 -123 -93 -123 -30 0 -98 32 -98 46
0 7 53 76 87 114 29 32 29 44 -2 58 -31 14 -62 14 -91 1z m61 -57 c0 -18 -66
-93 -77 -86 -30 19 -21 95 14 106 20 7 63 -7 63 -20z"/>
<path d="M3769 4666 c-85 -37 -121 -114 -84 -185 25 -49 83 -58 145 -23 25 14
25 14 -8 8 -49 -9 -76 1 -96 34 -18 32 -18 69 2 92 10 13 21 10 79 -18 37 -18
70 -31 72 -28 10 10 7 61 -6 87 -7 15 -15 27 -16 27 -1 0 -16 4 -32 8 -19 6
-40 5 -56 -2z m69 -28 c15 -15 16 -58 2 -58 -18 0 -90 40 -90 49 0 21 69 28
88 9z"/>
<path d="M1944 4649 c-10 -11 -46 -39 -79 -62 -49 -34 -56 -43 -38 -45 30 -4
167 -213 158 -241 -9 -28 0 -27 60 14 29 18 64 39 78 46 33 15 35 42 7 84 -20
29 -20 29 -17 5 7 -47 -31 -110 -65 -110 -4 0 -24 25 -44 55 l-36 54 31 27
c39 32 40 46 3 32 -44 -17 -80 -3 -100 38 -16 35 -16 36 3 51 19 14 43 13 94
-3 l24 -7 -19 32 c-28 49 -38 53 -60 30z"/>
<path d="M2152 4657 c-75 -42 -60 -110 26 -123 81 -11 112 -43 76 -79 -19 -18
-57 -13 -81 10 -8 8 -16 15 -19 15 -10 0 -2 -27 15 -49 17 -22 21 -23 55 -11
38 12 63 41 71 80 6 31 -36 70 -77 72 -18 0 -37 2 -43 3 -5 2 -15 3 -21 4 -18
2 -26 32 -13 47 15 19 38 18 61 -3 23 -21 31 -13 19 21 -11 28 -33 33 -69 13z"/>
<path d="M4125 4589 c-4 -5 -1 -9 4 -9 17 0 13 -25 -7 -50 l-18 -22 -34 21
c-44 27 -82 27 -135 0 -50 -25 -79 -69 -77 -118 2 -57 43 -80 110 -61 30 8 33
7 27 -8 -19 -44 -17 -50 15 -57 35 -8 53 1 30 15 -11 7 4 36 74 140 48 73 85
134 83 136 -11 12 -67 22 -72 13z m-71 -78 c27 -30 27 -56 -3 -89 -30 -32 -78
-60 -98 -56 -7 1 -18 2 -23 3 -6 0 -15 13 -21 28 -29 76 92 172 145 114z"/>
<path d="M589 4583 c0 -5 -2 -16 -4 -26 -2 -10 10 -32 26 -50 16 -17 29 -39
29 -49 0 -10 5 -18 10 -18 6 0 10 5 10 10 0 20 23 9 107 -50 48 -33 94 -60
104 -60 21 0 39 29 39 63 0 35 -12 41 -24 12 l-11 -25 -85 56 c-47 31 -87 58
-89 60 -2 1 7 17 19 33 21 31 13 44 -10 16 -19 -23 -60 -18 -86 10 -24 26 -33
31 -35 18z"/>
<path d="M5426 4574 c6 -28 -1 -34 -121 -110 -152 -96 -158 -98 -184 -85 -31
17 -26 3 30 -90 28 -46 55 -94 60 -107 8 -22 9 -22 51 -6 24 9 49 23 57 30 12
11 7 13 -31 12 -51 -1 -89 20 -106 58 -7 14 -12 26 -12 28 0 2 63 42 140 91
117 73 145 87 169 82 l30 -6 -22 39 c-11 22 -31 50 -43 61 -21 19 -22 20 -18
3z"/>
<path d="M541 4356 c-22 -26 -20 -90 4 -148 7 -17 5 -17 -30 -2 -44 18 -53 12
-58 -38 -5 -42 -1 -45 22 -24 14 13 26 9 99 -31 50 -27 88 -55 94 -69 6 -13
14 -24 17 -24 10 0 61 97 55 103 -3 3 -17 1 -31 -6 -33 -15 -85 13 -129 72
-38 50 -47 107 -17 118 18 7 167 -66 203 -99 19 -18 20 -18 45 32 14 27 25 52
25 54 0 3 -13 -2 -28 -11 -31 -18 -30 -19 -142 44 -71 39 -113 49 -129 29z"/>
<path d="M5413 4221 c-81 -44 -115 -96 -115 -172 0 -40 6 -60 29 -93 26 -37
130 -112 141 -101 3 2 -18 25 -46 50 -95 85 -87 189 19 261 37 25 58 31 107
33 55 2 63 -1 96 -29 44 -39 62 -96 46 -145 -6 -18 -17 -36 -25 -39 -8 -3 -15
-10 -15 -16 0 -27 86 8 92 37 9 44 -42 143 -94 184 -64 50 -172 64 -235 30z"/>
<path d="M4411 4130 c-24 -22 -53 -40 -65 -40 -32 0 -85 -36 -107 -75 -11 -19
-29 -37 -38 -40 -14 -4 -20 -20 -25 -59 -3 -30 -9 -61 -12 -69 -4 -11 4 -21
24 -31 37 -19 44 -36 35 -88 l-6 -41 -22 25 c-32 37 -55 47 -105 44 -32 -2
-47 -8 -58 -24 l-15 -22 -46 26 c-25 15 -72 44 -103 65 -32 22 -62 39 -67 39
-5 0 -14 7 -21 15 -22 27 -141 88 -204 105 -34 10 -98 18 -144 19 -81 2 -83 2
-72 -18 9 -17 20 -21 61 -21 l51 0 -7 -30 -7 -30 43 15 c67 24 109 9 192 -69
15 -14 41 -33 57 -41 16 -8 50 -38 76 -65 26 -28 78 -70 116 -95 38 -26 73
-57 78 -71 5 -13 20 -28 32 -33 19 -7 23 -16 23 -53 1 -29 9 -55 23 -75 12
-17 37 -67 56 -112 34 -77 34 -81 16 -91 -10 -5 -25 -10 -32 -10 -7 0 -49 -23
-92 -51 -43 -27 -82 -47 -86 -42 -4 4 -15 42 -24 83 -21 90 -75 231 -124 320
-48 88 -53 94 -65 78 -6 -10 -7 -9 -4 4 8 24 -46 100 -111 157 -73 64 -82 56
-13 -10 29 -28 51 -51 49 -52 -1 -2 -24 -10 -50 -19 -44 -16 -47 -15 -67 3
-12 11 -21 24 -21 30 0 15 21 53 34 61 8 5 7 8 -2 8 -8 0 -10 8 -6 24 5 21 -1
29 -35 50 -48 31 -47 30 -55 10 -3 -8 -2 -12 4 -9 5 3 19 0 32 -7 13 -7 24
-13 25 -13 1 0 4 -12 8 -26 5 -20 1 -32 -15 -47 -22 -20 -31 -21 -62 -8 -21
10 -32 54 -17 72 20 24 2 28 -22 5 -25 -23 -41 -26 -69 -11 -16 8 -19 21 -18
65 1 35 6 54 12 51 6 -2 10 -8 9 -14 -2 -6 4 -9 12 -6 8 4 25 0 38 -8 33 -21
57 -29 57 -18 0 6 -24 21 -52 34 -161 72 -147 68 -268 87 -36 6 -89 12 -117
13 -45 1 -53 -1 -53 -16 0 -26 -26 -33 -45 -14 -9 9 -12 16 -6 16 6 0 11 5 11
11 0 5 -5 7 -10 4 -6 -4 -27 -9 -48 -11 -67 -8 -141 -25 -172 -40 -31 -16 -41
-28 -15 -18 8 4 15 1 15 -6 0 -9 6 -7 19 4 11 10 25 18 33 20 7 1 19 5 26 9
23 15 128 18 139 5 23 -29 24 -57 4 -77 -26 -26 -42 -26 -71 -1 -15 13 -21 27
-18 43 4 20 1 23 -19 19 -17 -3 -21 -8 -14 -15 6 -6 11 -23 11 -39 0 -20 -8
-31 -30 -43 -29 -15 -31 -14 -53 7 -13 13 -32 30 -43 38 -17 13 -18 13 -8 0
22 -30 23 -61 3 -81 -22 -22 -47 -24 -71 -5 -36 27 -10 96 35 96 9 0 17 5 17
10 0 14 -8 13 -57 -11 -24 -11 -41 -24 -39 -28 3 -4 1 -13 -4 -21 -7 -12 -12
-12 -21 -3 -9 9 -19 7 -43 -10 -47 -32 -58 -46 -50 -58 4 -8 3 -9 -4 -5 -6 4
-26 -3 -44 -15 -35 -23 -100 -100 -92 -109 3 -2 14 6 24 20 11 14 20 19 20 11
0 -7 11 -22 25 -33 42 -33 21 -87 -33 -88 -32 0 -55 26 -49 55 2 14 2 25 0 25
-16 0 -103 -128 -103 -152 0 -10 13 -27 30 -40 38 -27 46 -53 26 -82 -25 -39
-86 -21 -86 25 0 31 -14 39 -24 13 -11 -28 5 -59 37 -74 36 -17 45 -42 26 -76
-14 -27 -44 -31 -71 -10 -19 14 -24 61 -8 71 6 3 10 16 10 28 0 12 -4 17 -9
12 -11 -13 -67 -179 -77 -230 -5 -22 -9 -43 -10 -47 -1 -5 -2 -17 -3 -27 -1
-15 -18 -2 -73 54 -40 40 -94 86 -119 102 l-47 29 25 40 c13 21 37 65 53 96
15 32 38 73 50 93 12 19 20 45 18 58 -1 13 7 32 20 45 13 13 20 27 17 32 -3 5
15 18 39 29 54 23 114 65 176 121 25 22 65 50 90 62 25 12 70 45 101 74 51 48
59 52 85 44 83 -26 115 -33 121 -26 5 4 0 12 -10 17 -9 6 -17 14 -17 19 0 15
58 22 81 9 17 -9 24 -9 27 0 2 6 10 11 18 11 8 0 14 4 14 8 0 14 -91 27 -180
27 -80 0 -90 -3 -182 -47 -54 -26 -136 -72 -183 -102 -46 -31 -95 -61 -107
-66 -13 -6 -31 -15 -40 -22 -14 -10 -21 -9 -38 7 -35 32 -74 28 -115 -12 -20
-19 -38 -34 -40 -32 -2 2 -6 30 -9 61 -5 45 -3 60 9 70 38 32 45 40 39 49 -3
6 -6 33 -6 61 1 42 -4 56 -26 78 -15 15 -40 44 -57 64 l-30 38 -71 -5 c-52 -3
-80 -10 -102 -25 -36 -26 -63 -89 -55 -129 3 -15 5 -46 5 -68 0 -22 4 -45 9
-51 7 -8 -4 -13 -37 -17 -50 -5 -58 -11 -68 -44 -6 -19 -3 -23 21 -28 48 -10
91 -36 97 -59 14 -51 8 -64 -43 -95 -15 -10 -10 -19 40 -70 28 -29 40 -62 29
-81 -5 -9 -17 -7 -46 8 -88 45 -140 51 -452 59 l-243 5 2 -28 c1 -16 0 -33 -1
-39 -2 -5 0 -18 5 -28 11 -26 -10 -45 -34 -30 -38 24 -104 35 -296 48 -22 2
-66 6 -97 10 -39 4 -58 3 -58 -4 0 -6 4 -11 10 -11 12 0 1 -32 -17 -47 -18
-14 -23 -11 127 -71 124 -50 139 -55 233 -67 50 -6 136 -36 173 -60 12 -8 25
-30 28 -49 4 -20 11 -36 16 -36 6 0 10 -11 10 -25 0 -14 7 -37 16 -50 14 -21
21 -41 23 -67 2 -17 35 -6 143 49 62 32 115 60 118 63 12 12 111 60 106 51 -4
-5 -78 -48 -165 -96 -88 -47 -162 -92 -165 -101 -6 -16 46 -74 65 -74 20 0
227 138 318 211 69 55 86 63 44 20 -60 -62 -223 -180 -309 -224 -33 -17 -63
-47 -47 -47 6 0 35 -21 65 -47 30 -27 63 -52 72 -58 28 -16 32 -111 8 -182
-11 -32 -22 -76 -26 -98 -17 -118 -17 -121 12 -201 30 -79 45 -143 47 -199 1
-17 4 -36 9 -43 4 -7 2 -12 -7 -12 -22 0 -50 -37 -50 -66 0 -19 11 -36 33 -54
29 -24 32 -32 36 -90 4 -74 13 -88 49 -72 35 16 47 53 48 147 1 103 -8 139
-31 130 -34 -15 -62 -17 -62 -6 0 7 6 11 13 10 6 -1 24 1 40 5 l27 8 -7 77
c-15 165 -3 343 26 382 10 14 26 48 35 75 26 77 36 94 55 85 19 -10 131 -46
146 -47 6 0 21 -4 35 -7 84 -22 276 -29 317 -12 18 8 33 12 33 10 0 -2 12 3
27 10 33 17 43 9 62 -50 69 -217 197 -399 379 -538 228 -175 523 -229 797
-147 113 34 270 135 386 250 102 101 154 176 221 317 39 82 53 103 66 99 22
-7 78 -16 125 -21 33 -4 43 0 65 25 25 26 30 28 66 20 53 -12 155 -6 259 15
48 10 90 16 92 13 2 -2 7 -28 9 -57 8 -99 61 -164 124 -155 12 2 22 -1 22 -7
0 -7 -13 -9 -37 -5 -75 12 -78 12 -76 -9 1 -11 5 -49 9 -85 10 -94 12 -258 2
-308 -9 -50 -17 -111 -23 -167 -2 -25 -11 -46 -24 -56 -39 -32 -17 -52 53 -47
51 3 76 29 76 78 0 32 6 45 30 67 32 28 38 57 16 85 -14 19 -9 59 27 223 14
65 24 130 33 213 1 18 -3 38 -10 44 -7 7 -11 20 -9 29 3 10 -2 42 -11 72 -14
47 -14 64 -3 118 11 55 17 65 48 83 53 31 70 46 120 106 26 31 68 67 94 80 74
38 100 77 97 145 -2 41 8 65 28 65 15 0 22 9 27 30 5 28 12 32 94 58 87 26 89
27 89 58 0 44 -17 87 -41 102 -19 12 -95 5 -161 -14 -12 -4 -15 0 -12 14 4 12
14 18 32 18 29 -1 31 9 18 76 -8 37 -41 82 -55 74 -4 -3 -20 7 -35 23 -24 25
-33 28 -79 24 -29 -2 -74 -8 -102 -13 -27 -6 -61 -12 -73 -15 -60 -11 -300
-88 -330 -105 -45 -27 -62 -18 -51 27 4 20 7 41 6 46 -1 5 11 12 28 14 28 4
65 28 65 42 0 4 -13 14 -29 24 -31 18 -42 42 -31 72 6 17 8 16 14 -9 12 -50
27 -57 82 -40 27 8 50 10 53 5 13 -21 104 -60 120 -52 9 5 26 7 39 5 14 -3 22
1 22 10 0 10 -13 14 -46 14 -34 0 -53 6 -67 21 -30 29 -27 31 83 47 30 4 57 8
60 9 54 14 102 29 132 40 25 10 45 12 61 6 25 -10 65 -14 107 -12 l25 1 -24
19 c-24 18 -24 19 -4 25 11 4 36 4 55 1 31 -5 36 -3 41 17 4 12 5 24 3 25 -6
6 -165 5 -174 -1 -20 -12 -86 -19 -207 -20 -83 -1 -138 -6 -152 -14 -13 -7
-23 -10 -23 -6 0 3 -6 2 -12 -3 -7 -5 -26 -10 -42 -11 -28 -2 -29 -1 -10 12
19 15 19 15 -4 31 -12 9 -29 29 -37 44 l-14 29 33 -8 c18 -4 47 -17 64 -30 33
-24 112 -37 157 -26 23 6 25 9 14 22 -8 10 -20 13 -33 9 -12 -4 -31 -6 -44 -6
-25 1 -66 20 -59 27 9 9 76 21 128 23 31 1 69 32 69 55 0 20 -5 20 -33 2 -12
-8 -38 -17 -57 -19 -19 -3 -56 -9 -82 -13 -42 -6 -53 -3 -87 19 -21 14 -54 27
-72 29 -29 4 -34 8 -37 34 -2 16 -9 35 -15 42 -8 11 -15 6 -29 -22 -24 -47
-33 -46 -12 2 32 75 36 88 36 130 0 81 -34 92 -101 32z m-1313 -167 c5 -18
-10 -16 -34 2 -18 15 -18 15 5 13 14 -2 26 -9 29 -15z m-44 -16 c19 -29 11
-62 -19 -75 -34 -16 -77 19 -70 55 8 47 64 59 89 20z m138 -13 c14 -31 -13
-74 -46 -74 -33 0 -60 33 -52 65 12 47 78 53 98 9z m64 5 c69 -29 83 -61 43
-98 -41 -38 -106 9 -80 58 14 25 14 34 1 26 -5 -3 -10 -4 -10 -1 0 2 -3 11 -6
20 -8 20 -5 20 52 -5z m1334 -69 c0 -5 -2 -10 -4 -10 -3 0 -8 5 -11 10 -3 6
-1 10 4 10 6 0 11 -4 11 -10z m-1462 -34 c187 -23 393 -148 502 -305 14 -20
31 -42 38 -49 28 -30 103 -205 126 -293 30 -115 37 -170 38 -288 1 -102 -11
-131 -31 -76 -7 19 -17 35 -22 35 -5 0 -9 8 -9 18 0 9 -9 28 -19 41 -17 22
-23 24 -81 18 -40 -3 -84 -16 -121 -34 -33 -16 -59 -28 -59 -26 0 3 5 13 10
24 6 10 12 110 15 221 2 112 7 211 11 221 8 22 43 37 84 37 24 0 29 5 34 35
12 61 -4 75 -87 75 -40 1 -117 3 -171 5 -55 2 -107 0 -116 -5 -11 -6 -21 -5
-27 1 -6 6 -78 12 -164 15 -85 2 -223 6 -306 9 -170 5 -154 12 -157 -68 -1
-37 -4 -40 -47 -56 -69 -27 -151 -92 -203 -163 -25 -35 -50 -67 -54 -73 -14
-18 -54 -109 -68 -155 -34 -109 -37 -244 -9 -385 10 -47 69 -158 119 -223 41
-54 59 -72 139 -139 27 -23 108 -62 169 -82 82 -27 213 -16 304 26 95 43 240
164 314 260 14 18 28 33 32 33 10 0 8 -72 -4 -109 -16 -50 -35 -66 -108 -90
-94 -31 -98 -34 -80 -68 20 -37 48 -39 151 -13 46 12 95 24 109 27 14 2 43 8
65 13 49 12 145 13 145 2 0 -25 -228 -212 -258 -212 -4 0 -42 -14 -85 -30 -98
-39 -137 -45 -267 -45 -137 1 -193 13 -319 74 -36 17 -67 28 -70 25 -3 -3 1
-9 9 -14 46 -26 52 -36 45 -68 -11 -51 -69 -56 -99 -9 -8 12 -6 24 7 47 20 34
6 41 -17 9 -16 -24 -58 -28 -81 -9 -21 18 -19 56 6 79 18 17 25 18 48 8 14 -6
28 -14 31 -18 3 -3 13 -8 23 -12 30 -11 19 7 -21 33 -20 13 -43 28 -50 34 -9
6 -12 5 -10 -4 2 -7 -3 -15 -11 -18 -10 -3 -12 2 -8 19 5 19 -3 33 -34 64 -45
45 -132 168 -143 203 -4 12 -11 22 -16 22 -5 0 -6 -8 -3 -17 6 -16 5 -16 -10
-5 -14 12 -20 11 -39 -2 -34 -24 -56 -19 -78 16 -19 31 -19 34 -2 50 10 10 30
19 45 20 15 1 27 8 27 15 0 7 5 13 11 13 6 0 8 -7 5 -16 -6 -16 21 -70 30 -61
3 2 -5 30 -16 61 -22 59 -59 177 -65 211 -16 85 -21 242 -10 295 11 58 15 77
20 107 10 62 57 198 91 263 59 113 73 133 135 203 128 142 299 230 489 253 30
3 56 7 57 8 4 4 124 -2 171 -8z m-568 -16 c24 -24 26 -53 4 -74 -19 -19 -45
-20 -66 -3 -28 22 -29 47 -3 73 29 29 39 30 65 4z m-910 -20 c-16 -30 -30 -33
-51 -14 -20 18 -20 19 13 30 40 14 51 9 38 -16z m2857 -41 c-31 -9 -69 -26
-85 -38 l-30 -21 -5 21 c-9 35 2 50 26 37 12 -6 23 -11 25 -10 1 1 16 8 32 17
16 8 35 25 41 37 l12 22 19 -24 20 -25 -55 -16z m-2034 -26 c16 -31 12 -53
-12 -68 -41 -24 -81 -5 -81 40 0 55 69 76 93 28z m2045 -57 c-7 -8 -15 -12
-17 -11 -5 6 10 25 20 25 5 0 4 -6 -3 -14z m-814 -48 c19 -27 20 -39 4 -61
-33 -44 -106 -11 -93 42 12 46 63 57 89 19z m-1399 -84 c23 -23 15 -66 -14
-81 -48 -23 -93 30 -63 74 17 27 54 30 77 7z m1457 -6 c28 -22 31 -55 9 -77
-12 -12 -28 -21 -36 -21 -26 0 -57 39 -49 63 9 31 24 47 43 47 10 0 24 -6 33
-12z m1248 -27 c6 -12 6 -22 1 -26 -10 -6 -14 -1 -24 28 -9 23 10 22 23 -2z
m54 -7 c4 -10 1 -14 -6 -12 -15 5 -23 28 -10 28 5 0 13 -7 16 -16z m-1979 -16
c72 -2 133 -7 137 -13 10 -14 -11 -35 -37 -35 -26 0 -49 -23 -65 -65 -7 -17
-13 -101 -15 -193 -1 -90 -7 -168 -12 -173 -5 -5 -27 -10 -49 -12 l-39 -2 0
157 0 156 -30 43 c-17 24 -53 55 -84 72 -47 27 -67 32 -145 35 -91 4 -114 11
-102 30 4 7 61 9 159 6 83 -2 211 -5 282 -6z m540 -29 c13 -13 -12 -29 -47
-29 -34 0 -78 -51 -79 -93 -3 -71 -7 -258 -8 -342 l-2 -90 -43 -32 c-31 -23
-46 -29 -54 -21 -16 16 -264 17 -345 2 -103 -20 -191 -68 -272 -149 -90 -89
-121 -153 -116 -238 2 -36 71 -89 121 -92 48 -3 138 56 174 113 36 57 46 99
48 207 l3 100 38 13 c22 6 43 9 49 6 5 -3 8 -34 7 -68 -7 -169 -83 -301 -211
-364 -84 -41 -141 -37 -220 16 -95 62 -108 181 -32 299 32 50 32 51 13 69 -23
21 -25 71 -3 99 14 19 15 19 40 -13 32 -41 66 -42 131 -4 94 55 156 79 253 98
19 4 96 7 170 8 74 1 140 4 146 8 14 9 17 372 3 415 -11 34 -38 56 -81 67 -20
4 -26 11 -21 22 5 14 25 15 167 9 89 -3 165 -11 171 -16z m1528 -51 c4 -28 1
-38 -9 -38 -8 0 -14 6 -15 13 0 6 -2 19 -5 27 -2 8 -7 29 -10 45 l-6 30 20
-20 c11 -11 22 -37 25 -57z m-74 48 c18 -21 19 -71 2 -71 -8 0 -15 9 -17 20
-1 11 -6 30 -9 43 -8 25 6 30 24 8z m-1248 -37 c29 -33 7 -89 -34 -89 -25 0
-57 27 -57 49 0 50 60 76 91 40z m-1045 -50 c78 -37 143 -132 139 -204 -3 -59
-4 -60 -17 -42 -12 14 -16 11 -43 -28 -30 -45 -49 -57 -92 -60 -22 -2 -22 -2
-4 34 10 20 22 58 26 85 7 52 6 53 -47 31 -30 -12 -31 20 -3 69 l26 45 -29 32
c-25 28 -34 31 -76 31 -91 -2 -142 -69 -184 -242 -59 -239 -37 -561 46 -696
74 -118 253 -171 404 -120 127 42 244 156 413 401 79 114 231 215 325 215 41
0 62 -16 36 -26 -26 -10 -18 -23 18 -30 45 -8 67 -33 69 -80 2 -32 -1 -39 -18
-41 -11 0 -34 -4 -51 -8 -22 -5 -35 -2 -47 10 -16 15 -17 15 -17 -12 0 -16 -7
-39 -17 -52 -16 -24 -17 -24 -32 -5 -28 33 -50 46 -86 51 -65 9 -110 -24 -225
-168 -117 -146 -207 -234 -272 -267 -196 -97 -335 -87 -508 37 -84 60 -147
143 -185 245 -32 85 -37 114 -41 251 -4 145 12 231 61 332 97 198 278 287 431
212z m526 -9 c20 -25 22 -50 19 -245 -1 -81 -6 -132 -13 -136 -6 -4 -45 -7
-87 -6 -42 0 -103 -3 -136 -7 -33 -5 -62 -8 -65 -8 -19 0 -156 -56 -210 -86
-76 -40 -115 -40 -126 3 -11 42 -59 26 -88 -29 -9 -18 -12 -46 -10 -78 2 -28
0 -56 -4 -62 -37 -46 -57 -193 -38 -271 l7 -30 -19 30 c-10 17 -25 48 -32 70
-16 45 -16 45 -24 100 -4 23 -9 52 -11 65 -8 38 -8 259 -1 310 18 111 55 244
83 291 20 34 72 53 109 39 31 -12 46 -50 34 -87 -22 -71 -22 -83 4 -94 28 -13
26 -21 -17 -91 -15 -26 -26 -52 -22 -58 8 -14 84 -13 126 2 19 6 48 21 64 33
17 12 42 26 56 32 l27 11 -4 -60 c-3 -53 -1 -59 14 -53 16 7 73 22 115 30 40
9 57 17 57 28 0 7 2 75 4 152 2 92 7 150 16 168 29 60 135 82 172 37z m-1943
7 c-10 -9 -59 -17 -59 -9 0 4 14 9 32 10 18 2 30 1 27 -1z m1512 -34 c18 -20
47 -74 32 -58 -46 47 -85 96 -68 88 11 -6 27 -19 36 -30z m2164 10 c-10 -38
-8 -66 11 -146 16 -67 12 -94 -13 -79 -6 4 -14 27 -17 52 -3 25 -10 63 -16 85
-14 58 -12 73 10 95 27 27 34 25 25 -7z m-3745 12 c0 -4 -66 -25 -100 -31 -8
-2 -84 -26 -168 -54 -167 -55 -162 -54 -162 -42 0 11 87 48 130 57 3 1 14 4
25 8 11 3 31 9 45 11 14 3 68 17 120 30 104 27 110 28 110 21z m3806 -32 c-1
-21 3 -60 11 -88 19 -69 21 -88 11 -114 -12 -33 -31 -21 -35 23 -1 20 -9 56
-17 80 -17 50 -12 106 12 124 22 17 22 17 18 -25z m-1227 -27 c24 -44 -13 -91
-61 -78 -26 6 -39 62 -20 85 22 25 66 22 81 -7z m-1709 -107 c23 -42 -36 -87
-79 -60 -7 5 -15 23 -17 40 -3 25 1 33 24 45 31 16 55 8 72 -25z m1739 19 c-1
-13 3 -35 9 -50 11 -27 -2 -47 -39 -61 -26 -9 -59 20 -59 52 0 34 17 51 52 51
20 0 26 4 22 15 -4 8 -1 15 5 15 6 0 10 -10 10 -22z m-2104 -18 c3 -6 -1 -7
-9 -4 -18 7 -21 14 -7 14 6 0 13 -4 16 -10z m-35 -20 c0 -5 -2 -10 -4 -10 -3
0 -8 5 -11 10 -3 6 -1 10 4 10 6 0 11 -4 11 -10z m80 -11 c0 -6 -4 -7 -10 -4
-5 3 -10 11 -10 16 0 6 5 7 10 4 6 -3 10 -11 10 -16z m-16 -78 c77 -125 145
-288 161 -386 13 -83 15 -105 7 -105 -4 0 -16 35 -25 78 -23 102 -21 97 -50
172 -36 93 -89 208 -120 258 -15 23 -23 42 -19 42 5 0 26 -27 46 -59z m262 19
c49 0 76 -59 40 -89 -19 -15 -52 -17 -69 -2 -18 15 -23 66 -7 76 5 3 8 11 6
18 -1 7 -1 9 1 5 3 -5 16 -8 29 -8z m2920 -53 c2 -79 -13 -101 -87 -128 -53
-19 -63 -28 -94 -78 -21 -35 -50 -66 -78 -83 -24 -16 -47 -28 -50 -28 -3 0
-36 -14 -74 -32 -37 -17 -70 -32 -73 -33 -3 -1 -43 -13 -90 -28 -106 -33 -175
-40 -237 -27 -26 6 -65 12 -85 12 -43 0 -49 13 -15 29 17 8 43 7 95 -4 71 -15
104 -14 172 3 19 5 37 9 40 9 15 -1 192 67 230 88 66 37 88 57 137 122 32 44
54 63 81 72 20 6 47 20 59 31 21 19 26 34 37 100 12 72 30 58 32 -25z m64 -22
c0 -52 -4 -68 -22 -89 -26 -28 -91 -66 -113 -66 -8 0 -32 -24 -53 -52 -22 -29
-50 -63 -63 -75 -39 -35 -134 -89 -201 -113 -35 -12 -70 -25 -78 -28 -29 -10
-36 -12 -140 -30 -115 -20 -168 -20 -251 2 -66 17 -45 33 29 21 82 -12 151
-13 194 -3 24 5 50 11 58 13 136 28 400 161 400 200 0 25 61 82 100 94 48 14
99 59 99 87 -1 51 5 90 13 101 19 23 28 2 28 -62z m-1156 42 c37 -27 13 -97
-33 -97 -22 0 -51 30 -51 53 0 25 28 57 50 57 9 0 24 -6 34 -13z m-1959 -7 c3
-5 1 -10 -4 -10 -6 0 -11 5 -11 10 0 6 2 10 4 10 3 0 8 -4 11 -10z m118 -85
c50 6 76 -60 35 -89 -30 -21 -45 -20 -65 4 -19 22 -27 106 -9 91 6 -5 23 -8
39 -6z m1864 -55 c14 -27 3 -54 -27 -70 -43 -23 -85 33 -60 80 16 29 70 23 87
-10z m-1802 -91 c-6 -59 -18 -79 -49 -79 -35 0 -50 17 -52 58 l-1 40 48 -1
c26 -1 47 0 47 3 -1 15 3 30 7 30 3 0 3 -23 0 -51z m1254 -41 c-35 -35 -72
-74 -81 -88 -186 -265 -294 -364 -425 -388 -57 -10 -60 -1 -10 24 49 25 153
137 182 195 34 72 44 110 51 204 4 44 10 82 15 85 4 3 36 5 71 4 117 -2 121
-3 114 -19 -3 -8 -2 -24 2 -36 8 -20 11 -19 58 21 27 24 51 47 52 51 2 5 11 9
19 9 9 0 -11 -26 -48 -62z m527 17 c21 -21 23 -28 13 -46 -6 -12 -9 -29 -6
-39 2 -9 0 -26 -6 -36 -11 -19 -12 -24 -15 -55 -3 -22 -42 -38 -69 -28 -30 11
-38 45 -19 74 17 27 45 32 77 15 16 -9 19 -7 19 10 0 15 -7 20 -29 20 -51 0
-72 50 -36 86 30 30 40 30 71 -1z m-991 -108 c-5 -97 -14 -137 -46 -203 -35
-75 -47 -85 -104 -91 -39 -5 -47 -2 -75 25 -50 51 -33 125 52 213 50 53 157
131 168 124 5 -3 7 -33 5 -68z m-870 33 c3 -5 -1 -10 -10 -10 -9 0 -13 5 -10
10 3 6 8 10 10 10 2 0 7 -4 10 -10z m91 -33 c15 -28 15 -31 -10 -56 -25 -25
-28 -25 -54 -11 -30 17 -41 62 -22 85 6 7 25 13 41 13 23 -1 34 -8 45 -31z
m1650 -12 c-18 -94 -95 -279 -142 -342 -30 -40 -31 -57 -1 -22 31 37 59 43 85
20 26 -22 28 -48 5 -73 -20 -22 -41 -23 -70 -3 -12 8 -29 12 -37 9 -12 -5 -15
-2 -10 10 3 9 2 16 -3 16 -4 0 -8 15 -8 33 0 31 -2 32 -46 37 -77 9 -79 13
-76 163 2 117 4 132 20 135 12 3 22 -8 33 -35 9 -21 21 -41 26 -44 20 -12 49
4 87 48 34 40 43 45 79 45 32 -1 42 4 47 19 11 32 18 21 11 -16z m-321 -161
c0 -154 2 -158 80 -169 62 -10 56 -35 -9 -36 -105 -2 -153 -8 -220 -29 -38
-12 -77 -24 -87 -26 -11 -2 -29 -6 -41 -10 -54 -13 -69 -14 -64 -6 3 5 24 15
48 22 24 8 54 20 68 27 14 7 30 13 35 13 6 1 27 18 49 39 41 41 40 36 45 215
1 18 13 40 35 62 58 58 61 51 61 -102z m-1305 110 c0 -8 -5 -12 -10 -9 -6 4
-8 11 -5 16 9 14 15 11 15 -7z m1909 -30 c2 -2 -2 -10 -8 -18 -11 -14 -23 -14
-96 -2 -43 7 -65 23 -50 37 4 5 146 -12 154 -17z m-1979 -9 c13 16 47 20 67 7
22 -14 25 -56 6 -78 -10 -11 -24 -19 -30 -18 -7 1 -19 2 -27 3 -8 0 -22 20
-32 44 -26 60 -27 64 -11 44 13 -15 16 -15 27 -2z m1754 -31 c30 -30 8 -94
-33 -94 -26 0 -60 28 -56 47 2 10 4 21 4 25 2 14 33 38 51 38 10 0 26 -7 34
-16z m156 -9 c8 -2 30 -4 48 -4 20 -1 32 -6 32 -15 0 -10 -14 -12 -57 -10 -87
4 -123 15 -123 35 0 9 42 6 100 -6z m-202 -112 c15 -21 15 -38 2 -64 -15 -27
-64 -25 -84 3 -20 28 -20 30 4 61 23 29 56 29 78 0z m-1539 -74 c28 -26 24
-59 -10 -78 -24 -13 -29 -13 -53 2 -33 22 -34 60 -4 81 29 21 40 20 67 -5z
m77 -106 c18 -24 17 -43 -3 -65 -39 -43 -109 4 -85 57 14 31 67 35 88 8z
m1318 -16 c41 -30 13 -97 -40 -97 -12 0 -24 5 -26 10 -2 6 -14 12 -27 15 -35
7 -35 9 9 49 44 39 57 43 84 23z m-1264 -41 c0 -7 9 -21 20 -31 52 -47 -11
-120 -64 -75 -33 26 -17 90 22 90 14 0 14 2 3 9 -7 5 -10 14 -7 20 9 14 26 5
26 -13z m1186 -71 c15 -23 15 -27 1 -49 -23 -35 -55 -39 -81 -11 -16 17 -26
21 -37 14 -7 -5 -9 -9 -3 -9 17 0 32 -43 23 -67 -13 -36 -51 -39 -103 -8 -44
26 -52 45 -19 45 13 0 98 61 138 99 20 20 64 12 81 -14z m-2278 -86 c10 -1 6
-4 -8 -8 -29 -9 -52 -3 -44 11 3 5 13 7 21 4 8 -3 22 -6 31 -7z m1395 -54 c24
-14 51 -23 59 -20 8 3 20 -1 27 -9 7 -8 19 -12 27 -9 21 8 54 -26 54 -55 0
-48 -55 -67 -90 -32 -18 18 -19 23 -7 53 13 30 13 33 -4 33 -9 0 -16 -3 -14
-6 7 -13 -17 -51 -37 -59 -48 -18 -95 43 -62 80 10 11 12 19 6 19 -7 0 -12 7
-12 15 0 19 0 19 53 -10z m664 12 c1 -2 6 -17 9 -34 8 -41 -29 -69 -70 -54
-14 6 -26 15 -26 20 0 5 -7 11 -14 14 -11 5 -14 -1 -11 -21 1 -15 -3 -36 -11
-46 -17 -24 -65 -24 -79 0 -5 10 -23 30 -38 45 l-29 26 26 5 c18 4 26 1 26 -9
0 -11 6 -9 26 6 30 24 50 27 58 9 3 -7 4 -4 3 7 -1 15 5 21 23 23 14 2 30 8
35 14 8 8 62 4 72 -5z m-2128 -89 c22 -41 19 -48 -11 -21 -10 9 -18 27 -18 41
0 30 1 29 29 -20z m1661 24 c0 -13 -12 -22 -22 -16 -10 6 -1 24 13 24 5 0 9
-4 9 -8z m127 -5 c6 -4 14 -3 17 1 9 15 56 1 71 -22 20 -30 8 -63 -26 -75 -25
-9 -33 -7 -49 9 -11 11 -20 31 -20 43 0 13 -6 24 -13 24 -8 0 -12 -11 -11 -28
3 -48 -49 -71 -88 -40 -19 16 -20 23 -12 52 9 31 14 34 54 39 54 7 62 7 77 -3z
m-1707 -178 c-11 -19 -29 -33 -35 -27 -2 2 -6 27 -10 56 l-6 52 30 -31 c24
-25 28 -35 21 -50z"/>
<path d="M298 4098 c-9 -18 -24 -50 -32 -71 l-15 -38 29 17 c29 18 30 17 167
-40 137 -58 177 -81 167 -97 -3 -5 -1 -9 4 -9 9 0 63 112 57 118 -2 2 -12 -2
-23 -9 -18 -11 -29 -10 -74 9 -29 12 -59 22 -66 22 -6 0 -12 4 -12 8 0 5 -6 9
-12 9 -7 0 -48 16 -90 35 -57 27 -77 42 -80 58 -3 19 -5 18 -20 -12z"/>
<path d="M798 3858 c-33 -9 -36 -12 -27 -29 9 -17 17 -19 55 -13 24 3 52 3 61
-1 15 -5 12 -9 -17 -21 -23 -10 -31 -17 -22 -23 12 -7 42 -7 130 2 32 4 69 -4
142 -29 54 -19 124 -37 156 -40 32 -4 90 -19 130 -35 40 -16 79 -29 87 -29 20
0 40 57 28 79 -12 21 -41 36 -106 52 -27 7 -72 23 -98 36 -28 14 -65 24 -90
23 -23 0 -69 0 -102 -1 -33 0 -72 2 -87 5 -16 3 -40 8 -55 12 -15 3 -30 7 -34
10 -17 10 -117 12 -151 2z"/>
<path d="M5410 3771 c-7 -14 -5 -24 8 -41 20 -24 48 -19 57 11 14 42 -44 68
-65 30z"/>
<path d="M20 3607 c-11 -11 -20 -25 -20 -31 0 -5 24 -33 53 -61 51 -50 114
-87 169 -99 26 -6 27 -5 17 18 -10 21 -8 29 10 52 20 26 21 28 4 47 -53 57
-153 55 -153 -4 0 -26 -12 -24 -44 10 -31 33 -32 67 -1 65 35 -2 83 -12 94
-19 6 -3 11 -2 11 4 0 10 -44 27 -93 35 -19 3 -33 -1 -47 -17z"/>
<path d="M287 3493 c-11 -11 -8 -48 5 -61 18 -18 25 -15 32 14 9 34 -17 67
-37 47z"/>
<path d="M5815 3441 c-130 -63 -125 -62 -355 -76 -164 -10 -160 -7 -129 -60
12 -20 23 -53 24 -72 1 -33 16 -51 40 -48 6 0 80 24 166 53 86 29 179 54 208
56 56 3 88 22 171 100 52 49 58 64 38 84 -22 22 -62 13 -163 -37z"/>
<path d="M248 3474 c-11 -10 5 -45 26 -56 17 -9 19 -8 9 3 -7 7 -13 23 -13 36
0 22 -10 30 -22 17z"/>
<path d="M2165 3459 c-10 -15 3 -25 16 -12 7 7 7 13 1 17 -6 3 -14 1 -17 -5z"/>
<path d="M434 2890 c-6 -6 -49 -13 -95 -16 -46 -2 -97 -7 -114 -9 -16 -2 -39
2 -51 10 -20 13 -21 12 -20 -30 1 -52 10 -63 31 -41 17 16 124 24 126 9 1 -5
2 -21 4 -38 1 -16 4 -43 6 -60 4 -28 2 -30 -37 -35 -42 -6 -78 -5 -104 1 -11
3 -14 -6 -15 -38 0 -45 5 -51 27 -30 16 15 9 13 136 21 65 4 110 2 122 -4 16
-9 20 -7 21 7 1 10 2 25 3 33 1 8 -2 23 -7 33 -8 17 -10 17 -20 3 -13 -17 -93
-31 -101 -17 -3 4 -6 36 -8 71 l-3 63 46 4 c34 3 51 0 63 -12 17 -18 19 -15
17 30 -3 60 -6 66 -27 45z"/>
<path d="M5763 2883 c-7 -3 -29 -27 -49 -54 -37 -51 -57 -61 -68 -33 -10 26 2
51 27 58 20 6 20 7 5 17 -32 18 -60 -6 -57 -49 2 -20 9 -45 17 -54 15 -18 72
-25 72 -10 0 4 18 27 38 51 30 34 43 42 59 37 42 -13 33 -69 -13 -87 -30 -11
-23 -29 11 -29 29 0 55 24 55 52 0 55 -57 115 -97 101z"/>
<path d="M5624 2711 c-15 -10 -1 -71 16 -71 4 0 11 -7 14 -16 5 -12 2 -15 -13
-11 -30 7 -39 -5 -29 -41 8 -30 10 -31 25 -17 26 27 173 4 173 -26 0 -6 4 -8
8 -5 5 3 9 29 11 58 2 48 1 51 -12 33 -20 -26 -56 -26 -108 -1 -60 29 -71 51
-39 76 17 14 20 20 10 21 -8 0 -22 2 -31 4 -9 1 -20 0 -25 -4z"/>
<path d="M249 2543 c-63 -25 -81 -94 -40 -152 39 -55 95 -69 158 -41 78 35 77
131 -2 180 -43 26 -74 30 -116 13z m139 -37 c9 -9 5 -55 -8 -85 -12 -30 -53
-54 -97 -56 -24 -1 -55 26 -66 57 -9 26 34 81 73 94 31 10 83 5 98 -10z"/>
<path d="M5597 2468 c-24 -23 -28 -34 -23 -59 17 -86 115 -135 187 -92 40 24
52 64 33 113 -9 21 -22 41 -30 44 -11 4 -12 2 -4 -14 26 -49 2 -105 -51 -115
-52 -10 -57 -1 -44 75 7 39 12 71 11 71 -1 1 -12 3 -26 4 -16 2 -34 -8 -53
-27z m49 -56 c-7 -54 -12 -60 -34 -46 -34 22 -16 91 24 91 13 0 15 -8 10 -45z"/>
<path d="M412 2303 c2 -13 -14 -22 -77 -40 -52 -15 -83 -19 -89 -13 -16 16
-30 12 -16 -5 7 -8 10 -15 7 -15 -3 0 -1 -13 4 -30 11 -30 29 -41 29 -17 0 47
156 52 180 6 9 -16 5 -21 -26 -34 -20 -8 -58 -21 -85 -29 -68 -21 -69 -22 -57
-58 11 -30 11 -31 27 -10 32 41 117 55 159 26 45 -31 21 -53 -93 -84 -65 -17
-69 -21 -52 -61 13 -32 14 -33 21 -12 5 17 27 28 92 50 71 23 86 31 91 52 5
20 -1 31 -32 58 -36 31 -37 34 -22 51 27 29 20 50 -25 79 l-43 26 28 10 c32
10 33 16 7 45 -25 26 -32 28 -28 5z"/>
<path d="M5550 2267 c-11 -11 -20 -26 -21 -31 0 -6 -2 -20 -4 -31 -6 -29 23
-82 58 -107 42 -30 110 -29 140 1 31 30 30 102 0 133 l-22 22 11 -37 c22 -71
-20 -112 -96 -95 -89 20 -104 113 -20 134 27 7 24 19 -6 27 -13 3 -28 -2 -40
-16z"/>
<path d="M5470 2030 c-18 -18 -18 -22 -5 -67 8 -26 15 -49 15 -50 0 -1 -13 0
-30 4 -28 5 -30 4 -30 -26 0 -31 8 -38 26 -22 10 10 147 -43 152 -59 7 -20 22
-9 37 26 8 20 15 38 15 39 0 2 -15 -1 -34 -5 -26 -6 -42 -3 -63 10 -55 34 -82
85 -59 114 9 12 21 10 81 -16 89 -38 96 -38 111 -9 15 29 8 47 -11 31 -9 -8
-35 -2 -94 20 -46 16 -84 30 -87 30 -2 0 -13 -9 -24 -20z"/>
<path d="M468 1907 c-47 -11 -88 -58 -88 -99 0 -40 48 -88 87 -87 26 0 27 1 6
9 -32 13 -55 53 -48 83 8 31 50 71 67 64 7 -3 24 -32 38 -66 14 -33 27 -61 30
-61 14 1 40 30 50 54 18 47 -16 87 -90 108 -8 3 -32 0 -52 -5z m108 -42 c15
-20 9 -55 -9 -67 -11 -6 -25 18 -41 68 -5 17 -2 20 15 19 12 -1 28 -10 35 -20z"/>
<path d="M5365 1780 c-23 -25 -36 -95 -21 -114 11 -13 46 -29 46 -21 0 2 -9
19 -20 37 -18 31 -18 36 -4 56 22 32 54 10 53 -38 0 -34 4 -62 16 -100 3 -10
19 -23 35 -29 42 -14 60 7 60 68 0 43 2 48 23 47 18 -1 23 5 25 32 3 33 -11
44 -22 17 -5 -13 -15 -11 -67 15 -97 50 -105 51 -124 30z m129 -92 c23 -32 20
-65 -5 -73 -22 -7 -41 5 -45 27 -4 31 -6 54 -5 71 1 14 5 16 20 7 11 -5 27
-20 35 -32z"/>
<path d="M5198 1614 c-24 -13 -162 -204 -153 -212 2 -2 12 1 22 6 14 8 38 -4
123 -62 58 -40 104 -78 103 -84 -10 -47 64 44 94 116 27 65 14 139 -36 196
-37 42 -111 62 -153 40z m69 -49 c34 -10 61 -27 82 -50 17 -20 32 -39 32 -43
11 -58 -5 -101 -46 -128 -19 -13 -28 -13 -47 -3 -38 20 -166 108 -173 119 -6
10 19 66 41 87 7 7 23 17 36 22 13 6 23 10 24 10 0 1 23 -6 51 -14z"/>
<path d="M590 1576 c-68 -48 -56 -141 24 -177 21 -9 46 -15 55 -14 9 2 24 4
33 4 27 1 76 49 83 82 22 97 -107 166 -195 105z m145 -16 c43 -48 -17 -150
-89 -150 -39 0 -55 16 -60 58 -10 77 100 146 149 92z"/>
<path d="M3370 1464 c-8 -4 -32 -17 -52 -31 -37 -25 -41 -41 -22 -93 4 -13 6
-13 14 0 6 8 10 25 10 36 0 31 32 66 62 69 21 2 29 -3 38 -26 16 -37 10 -57
-51 -186 -27 -59 -46 -110 -42 -114 4 -4 53 2 108 14 99 22 100 23 101 52 1
42 -5 48 -24 26 -15 -16 -141 -56 -150 -46 -2 2 12 28 32 59 81 126 100 183
73 219 -13 18 -71 30 -97 21z"/>
<path d="M2637 1453 c-2 -2 -22 -4 -45 -5 -23 -1 -39 -5 -36 -10 3 -4 11 -8
19 -8 23 0 24 -12 9 -75 -8 -33 -16 -73 -19 -89 -10 -49 -33 -96 -49 -96 -35
0 -13 -18 39 -32 30 -8 55 -14 55 -12 0 3 -5 13 -12 24 -10 16 -7 41 16 137
15 65 34 130 41 144 10 21 9 26 -2 26 -7 0 -15 -2 -16 -4z"/>
<path d="M880 1421 c-14 -5 -35 -6 -48 -4 -18 4 -21 2 -16 -12 4 -11 -1 -22
-16 -33 -80 -59 -105 -72 -123 -66 -19 6 -19 6 -1 -26 28 -47 41 -54 48 -28 4
13 33 42 65 65 l59 41 21 -21 21 -22 -6 33 c-5 26 -2 36 12 47 40 30 80 13 65
-28 -12 -30 -5 -33 22 -13 21 16 22 39 3 55 -19 16 -75 22 -106 12z"/>
<path d="M2826 1420 c-68 -21 -101 -86 -70 -140 22 -36 71 -49 119 -31 45 16
47 15 42 -21 -8 -60 -33 -104 -66 -117 -42 -18 -58 -9 -72 39 -13 43 -26 43
-29 0 -4 -44 -1 -49 35 -59 42 -11 71 -5 111 25 90 67 102 252 20 293 -35 16
-60 20 -90 11z m63 -28 c38 -30 26 -113 -19 -127 -33 -10 -58 4 -70 39 -11 36
-6 61 19 88 21 22 44 22 70 0z"/>
<path d="M3112 1415 c-68 -29 -112 -148 -86 -234 22 -72 56 -101 118 -101 26
0 44 9 70 34 20 18 37 41 37 50 1 9 2 22 3 29 1 6 -4 24 -11 39 -21 44 -109
51 -148 12 -20 -21 -26 -15 -29 30 -4 42 25 111 51 123 31 16 47 9 73 -31 l25
-39 3 38 c2 21 0 41 -5 45 -15 15 -70 18 -101 5z m60 -174 c10 -1 35 -53 32
-68 -1 -7 -2 -19 -3 -27 -2 -23 -30 -46 -55 -46 -55 0 -82 95 -38 131 12 9 30
16 40 14 9 -2 20 -4 24 -4z"/>
<path d="M1044 1215 c-10 -8 -30 -15 -43 -15 -16 0 -21 -4 -18 -15 4 -9 -15
-33 -53 -66 -84 -73 -87 -90 -19 -109 l34 -9 -22 18 -23 19 57 51 c52 48 83
63 83 42 0 -5 8 -12 18 -16 14 -5 15 -4 5 6 -22 22 -15 58 12 71 29 13 32 23
9 32 -20 8 -17 8 -40 -9z"/>
<path d="M4973 1192 c-17 -11 -31 -53 -27 -84 2 -18 -2 -28 -11 -28 -7 0 -15
3 -17 8 -2 4 -25 27 -51 52 -49 46 -60 46 -71 -2 -5 -22 -3 -25 12 -21 12 3
36 -11 67 -39 81 -71 141 -132 147 -148 5 -12 12 -8 32 15 31 37 32 45 4 40
-29 -6 -84 53 -93 101 -5 29 -2 41 12 56 19 18 20 17 85 -46 36 -35 69 -61 74
-57 5 3 18 17 29 30 l20 24 -23 -6 c-23 -5 -32 0 -130 91 -26 23 -39 27 -59
14z"/>
<path d="M1158 1153 c8 -13 3 -23 -17 -44 -14 -15 -54 -56 -89 -92 -35 -36
-72 -67 -83 -69 -18 -3 -17 -7 15 -37 36 -34 36 -35 36 -10 1 58 96 115 154
93 28 -11 18 -32 -48 -101 l-64 -67 23 -18 c30 -23 32 -23 39 6 3 13 21 39 38
58 85 87 92 118 33 138 -19 6 -40 10 -47 9 -39 -5 -35 7 20 63 l61 62 -31 13
c-41 18 -51 17 -40 -4z"/>
<path d="M4786 1001 c-56 -37 -70 -94 -40 -158 33 -68 106 -90 154 -45 27 25
34 49 31 97 -1 13 -7 7 -16 -19 -16 -45 -29 -56 -68 -56 -20 0 -40 11 -64 35
-31 31 -35 40 -30 72 8 46 10 48 63 48 48 0 53 5 28 29 -20 20 -23 20 -58 -3z"/>
<path d="M4561 937 c-9 -11 -8 -17 4 -27 12 -10 16 -9 21 5 9 23 -10 40 -25
22z"/>
<path d="M1325 885 c-5 -2 -22 -6 -37 -9 -39 -9 -86 -52 -93 -86 -16 -72 28
-123 100 -118 42 3 48 18 7 18 -16 0 -37 9 -46 19 -22 24 -25 80 -5 108 14 21
15 20 73 -23 32 -24 62 -44 67 -44 14 0 23 51 13 78 -9 26 -60 62 -79 57z m19
-21 c22 -8 37 -39 30 -58 -7 -18 -28 -11 -67 20 -25 21 -26 24 -10 33 21 12
26 13 47 5z"/>
<path d="M4446 855 c-21 -32 -20 -44 2 -39 12 4 32 -16 72 -72 78 -109 92
-135 87 -156 -5 -17 -4 -17 25 -1 44 27 53 40 29 48 -11 3 -57 58 -101 120
-45 63 -85 117 -90 120 -4 3 -15 -6 -24 -20z"/>
<path d="M4612 845 c-15 -33 -15 -38 2 -32 23 9 114 -110 108 -140 -4 -21 10
-15 48 17 30 26 32 30 14 30 -21 0 -36 15 -107 103 -21 26 -42 47 -46 47 -4 0
-13 -11 -19 -25z"/>
<path d="M1650 733 c-64 -23 -98 -47 -120 -85 -25 -44 -30 -111 -11 -146 28
-52 125 -86 181 -63 24 9 24 10 -8 10 -103 2 -162 92 -120 182 25 52 62 82
105 84 66 5 101 -29 115 -110 3 -18 5 -17 22 8 16 24 17 31 6 52 -22 41 -128
83 -170 68z"/>
<path d="M4383 692 c-7 -4 -19 -24 -28 -45 -17 -41 -21 -43 -49 -22 -27 20
-53 3 -67 -45 l-12 -40 -20 21 c-18 19 -20 19 -38 3 -18 -16 -28 -50 -11 -40
4 2 13 2 18 -2 18 -12 74 -119 74 -140 0 -23 15 -22 58 6 l23 15 -29 12 c-52
22 -74 128 -34 167 20 20 20 20 59 -48 22 -38 43 -77 46 -87 6 -16 9 -17 37
-2 31 16 40 35 17 35 -20 0 -54 41 -62 73 -10 38 2 94 22 101 18 7 29 -6 74
-89 17 -33 33 -61 34 -63 2 -2 18 4 37 14 31 17 32 18 10 23 -20 5 -92 107
-92 131 0 10 -32 30 -47 30 -4 0 -13 -4 -20 -8z"/>
<path d="M1875 631 c4 -9 7 -18 8 -21 5 -14 -88 -208 -108 -226 l-23 -21 34
-17 c47 -22 57 -21 44 4 -21 39 42 120 104 136 42 10 43 -18 3 -106 -37 -83
-36 -91 10 -103 20 -4 21 -3 13 14 -8 14 -4 33 16 76 14 32 28 72 31 90 5 28
2 34 -21 44 -21 10 -34 10 -62 0 -20 -7 -38 -11 -41 -8 -2 3 9 35 26 72 17 36
31 70 31 75 0 4 -16 8 -35 7 -28 -1 -34 -4 -30 -16z"/>
<path d="M4011 606 c-14 -17 -7 -36 14 -36 22 0 29 20 13 36 -13 13 -16 13
-27 0z"/>
<path d="M4037 502 c-21 -23 -21 -34 -1 -30 23 4 76 -116 68 -154 l-6 -28 41
19 c52 23 57 28 34 35 -17 5 -50 49 -52 69 -2 23 -45 107 -56 107 -6 0 -19 -8
-28 -18z"/>
<path d="M2323 474 c-9 -23 13 -40 32 -24 12 10 13 16 4 26 -15 18 -28 18 -36
-2z"/>
<path d="M3680 472 c-41 -14 -43 -16 -22 -25 19 -9 42 -58 42 -93 0 -15 -122
-46 -134 -34 -15 15 -25 94 -13 102 20 12 -1 21 -30 13 -15 -5 -31 -9 -35 -10
-5 -2 -14 -3 -20 -4 -8 -1 -4 -9 9 -19 29 -23 82 -244 64 -266 -10 -12 -9 -14
6 -11 10 2 27 4 38 4 11 1 27 6 35 11 13 9 13 12 -2 20 -16 10 -29 41 -42 102
-5 23 -2 28 27 37 17 5 48 13 68 16 39 7 42 3 56 -80 3 -16 7 -32 9 -34 2 -2
-1 -10 -7 -18 -9 -10 -7 -13 8 -13 32 0 84 21 77 31 -3 5 -9 7 -14 4 -5 -3
-14 11 -19 32 -41 149 -51 200 -47 220 8 30 -2 33 -54 15z"/>
<path d="M3888 452 c-47 -28 -67 -107 -41 -160 38 -79 128 -84 169 -10 23 40
15 51 -12 19 -33 -40 -75 -42 -109 -5 -41 44 -36 54 39 80 33 11 61 25 63 31
6 16 -29 50 -57 56 -15 4 -36 -1 -52 -11z m56 -31 c17 -18 16 -19 -13 -26 -17
-4 -33 -11 -36 -16 -9 -13 -22 -11 -28 5 -8 19 20 56 42 56 10 0 26 -9 35 -19z"/>
<path d="M2092 443 c-9 -4 -10 -9 -2 -18 14 -17 -24 -140 -50 -163 -19 -15
-18 -16 18 -29 54 -19 69 -17 49 5 -13 15 -14 22 -2 55 22 64 74 109 100 87 8
-6 11 -18 8 -26 -3 -8 -1 -14 5 -14 6 0 15 13 20 29 15 42 -6 58 -50 40 -18
-7 -37 -18 -41 -23 -4 -6 -7 4 -5 23 2 27 -1 34 -17 36 -11 2 -26 1 -33 -2z"/>
<path d="M2757 403 c-14 -13 -7 -33 11 -33 24 0 32 8 25 26 -5 15 -25 19 -36
7z"/>
<path d="M2276 381 c-17 -6 -17 -8 -4 -14 19 -7 18 -29 -6 -109 -9 -31 -24
-61 -33 -67 -14 -7 -9 -11 26 -21 45 -12 62 -7 44 11 -8 8 -7 27 3 67 22 87
26 106 28 122 1 17 -29 23 -58 11z"/>
<path d="M2623 383 c-7 -2 -13 -11 -13 -19 0 -8 -11 -26 -25 -39 -18 -19 -20
-25 -8 -25 13 0 14 -9 8 -57 -17 -146 -18 -143 13 -143 16 0 37 7 48 16 19 15
18 15 -3 11 -28 -6 -31 5 -19 96 7 61 10 65 43 61 l27 -3 -30 24 c-27 21 -28
25 -17 54 12 32 6 37 -24 24z"/>
<path d="M2441 349 c-32 -13 -50 -39 -42 -60 3 -9 23 -36 44 -59 42 -48 42
-49 24 -75 -20 -27 -65 -13 -73 23 -10 41 -17 48 -25 26 -15 -39 -9 -55 25
-69 42 -18 83 -8 109 27 22 30 16 48 -39 104 -38 40 -40 46 -20 63 20 17 43 4
56 -32 11 -29 13 -30 20 -12 16 37 11 53 -21 64 -18 6 -32 11 -33 10 -1 0 -12
-5 -25 -10z"/>
<path d="M3202 300 c-46 -21 -63 -46 -52 -75 7 -18 10 -16 24 17 25 59 65 70
80 23 4 -16 -1 -25 -22 -37 -75 -45 -107 -91 -89 -129 17 -33 40 -35 84 -5 37
25 38 25 45 6 8 -23 25 -25 51 -6 22 17 22 34 0 32 -12 -1 -17 9 -19 34 -5 64
-14 133 -19 140 -10 17 -45 17 -83 0z m58 -110 c0 -12 -7 -35 -16 -51 -12 -24
-21 -30 -42 -27 -38 4 -38 41 0 73 36 30 58 32 58 5z"/>
<path d="M2738 303 c-22 -5 -22 -10 -3 -29 8 -8 12 -20 10 -27 -3 -7 -6 -36
-9 -66 -2 -40 -9 -59 -24 -72 -21 -17 -21 -17 10 -23 17 -3 43 -6 59 -6 29 0
29 0 9 20 -17 17 -19 28 -13 82 13 126 10 135 -39 121z"/>
<path d="M2867 289 c-15 -9 -15 -12 -3 -24 19 -19 18 -151 -1 -167 -23 -19
-14 -25 35 -22 26 1 49 2 52 3 2 1 -6 8 -18 17 -41 28 -16 122 43 160 14 9 29
13 33 10 4 -4 7 -49 7 -99 l0 -92 33 -3 c36 -4 37 -3 19 31 -7 14 -12 50 -10
86 1 34 -2 73 -7 86 -13 35 -51 32 -94 -5 l-35 -31 -3 28 c-3 30 -23 39 -51
22z"/>
</g>
</svg>
