<svg xmlns="http://www.w3.org/2000/svg" viewBox="0 0 18.23 15.01">
  <g>
    <path
      d="m18.16,1.8c-.58.26-1.22.42-1.84.53.3-.05.73-.59.91-.8.27-.33.49-.71.61-1.12.02-.03.03-.07,0-.1-.04-.02-.07,0-.1,0-.7.37-1.42.64-2.19.84-.06.02-.11,0-.15-.04-.06-.07-.12-.14-.19-.2-.32-.27-.67-.49-1.06-.65C13.63.06,13.07-.03,12.52,0c-.54.03-1.06.19-1.54.44-.48.25-.9.6-1.24,1.02-.35.43-.61.94-.74,1.49-.13.52-.12,1.04-.04,1.57.01.09,0,.1-.08.09-3-.45-5.49-1.52-7.51-3.82-.09-.1-.14-.1-.21,0-.88,1.33-.46,3.45.65,4.5.15.14.3.28.46.41-.06.01-.79-.07-1.45-.41-.09-.06-.13-.02-.14.08,0,.14,0,.28.02.43.17,1.34,1.1,2.59,2.37,3.07.15.06.32.12.48.15-.29.06-.59.11-1.42.04-.1-.02-.14.03-.1.13.63,1.7,1.98,2.21,2.99,2.5.14.02.27.02.41.06,0,.01-.02.01-.02.02-.34.51-1.5.89-2.04,1.08-.98.34-2.06.5-3.1.4-.17-.02-.2-.02-.25,0-.05.03,0,.07.05.11.21.14.43.26.65.38.66.35,1.35.63,2.07.83,3.72,1.03,7.91.27,10.71-2.5,2.19-2.18,2.96-5.19,2.96-8.2,0-.12.14-.18.22-.25.57-.43,1.03-.94,1.46-1.52.1-.13.1-.24.1-.29v-.02s0-.03-.07,0Z" />
  </g>
</svg>